<svg id="BR_APP" data-name="BR APP" xmlns="http://www.w3.org/2000/svg" width="641" height="720" viewBox="0 0 641 720">
  <defs>
    <style>
      .cls-1 {
        fill: #ffd500;
      }

      .cls-2, .cls-3 {
        fill-rule: evenodd;
      }

      .cls-3 {
        fill: none;
        stroke: #000;
        stroke-width: 2px;
      }
    </style>
  </defs>
  <rect id="Rectangle_1292_copy_2" data-name="Rectangle 1292 copy 2" class="cls-1" width="641" height="720"/>
  <path id="Take_BR_with_you_wherever_you_go._Download_the_app_let_s_stay" data-name="Take BR with you wherever you go. Download the app &amp; let’s stay" class="cls-2" d="M144.426,453.232H131.781v2.245h5.108v13.791h2.429V455.477h5.108v-2.245Zm9.924,16.036v-7.926c0-2.428-1.6-3.872-4.444-3.872a6.824,6.824,0,0,0-4.261,1.375v2.222a6.52,6.52,0,0,1,4.077-1.558c1.467,0,2.314.573,2.314,1.535,0,0.916-.8,1.168-1.649,1.375l-1.558.366c-1.489.344-3.917,0.939-3.917,3.551,0,2.085,1.489,3.138,3.5,3.138a4.139,4.139,0,0,0,3.665-1.947v1.741h2.268Zm-7.125-3.07c0-1.237,1.077-1.557,2.154-1.832l1.008-.252a7.89,7.89,0,0,0,1.649-.573V464.6a3,3,0,0,1-3.115,2.978C147.936,467.573,147.225,467.161,147.225,466.2Zm10.818-13.218v16.288h2.336v-5.315l5.178,5.315h3.161l-6-6,5.658-5.589h-3.115l-4.88,4.971V452.98h-2.336Zm22.432,11.2v-1.008c0-3.528-1.833-5.7-5.017-5.7-3.574,0-5.682,2.7-5.682,6.048,0,3.574,2.36,5.956,6.094,5.956a7.584,7.584,0,0,0,4.261-1.237v-2.176a6.955,6.955,0,0,1-4.146,1.4c-2.337,0-3.712-1.214-3.941-3.275h8.431Zm-8.385-1.764a3.113,3.113,0,0,1,3.207-2.91,2.673,2.673,0,0,1,2.864,2.91H172.09Zm23.373-9.187h-5.819v16.036h6.025c3.23,0,5.246-2.176,5.246-4.719a3.843,3.843,0,0,0-2.886-3.849,3.989,3.989,0,0,0,1.787-3.5C199.816,454.973,198.189,453.232,195.463,453.232ZM192.05,467v-4.994H195.6c1.832,0,2.863,1.031,2.863,2.383,0,1.466-1.1,2.611-3.07,2.611H192.05Zm0-7.124v-4.4h2.909c1.6,0,2.428.894,2.428,2.108a2.26,2.26,0,0,1-2.5,2.291h-2.84Zm17.438-6.644h-5.246v16.036h2.406V462.6h1.031c1.695,0,2.542.825,3.5,2.726l1.947,3.94h2.7l-2.474-4.811a5.963,5.963,0,0,0-2.268-2.634,4.408,4.408,0,0,0,3.115-4.284C214.207,455.363,212.627,453.232,209.488,453.232Zm-2.84,7.194v-4.949h2.565a2.35,2.35,0,0,1,2.543,2.429,2.5,2.5,0,0,1-2.68,2.52h-2.428Zm31.231-2.749-2.91,8.43-2.611-8.43h-1.947l-2.612,8.43-2.909-8.43h-2.52l4.352,11.591h2.039l2.635-7.72,2.634,7.72h2.039l4.353-11.591h-2.543Zm5.963-1.948a1.583,1.583,0,1,0,0-3.161A1.581,1.581,0,1,0,243.842,455.729Zm-1.123,13.539h2.337V457.677h-2.337v11.591Zm14.3-11.591h-4.627v-3.62h-2.337v3.62H247.3v2.061h2.749V465.1a4.109,4.109,0,0,0,4.33,4.375,6.329,6.329,0,0,0,2.909-.756v-2.107a4.6,4.6,0,0,1-2.428.779,2.3,2.3,0,0,1-2.474-2.5v-5.155h4.627v-2.061Zm2.8-4.7v16.288h2.336v-8.041a3.87,3.87,0,0,1,3.093-1.6,2.548,2.548,0,0,1,2.68,2.772v6.872h2.337v-7.445a4.238,4.238,0,0,0-4.513-4.353,4.837,4.837,0,0,0-3.6,1.535V452.98h-2.336Zm27.818,4.7-3.391,8.59-3.367-8.59h-2.543l4.742,11.385-0.344.916a2.563,2.563,0,0,1-2.52,1.7,4.923,4.923,0,0,1-1.832-.413v2.016a5.561,5.561,0,0,0,2.061.39c2.108,0,3.574-1.192,4.536-3.528l5.155-12.462h-2.5Zm9.374-.207a6,6,0,1,0,5.841,6.025A5.648,5.648,0,0,0,297.007,457.47Zm-3.483,5.979c0-2.313,1.329-3.825,3.483-3.825,2.176,0,3.5,1.535,3.5,3.848,0,2.337-1.329,3.826-3.5,3.826C294.853,467.3,293.524,465.786,293.524,463.449Zm22.547-5.772h-2.337v8.063a3.819,3.819,0,0,1-3.024,1.558,2.587,2.587,0,0,1-2.657-2.841v-6.78h-2.314v7.262a4.279,4.279,0,0,0,4.49,4.535,4.7,4.7,0,0,0,3.551-1.557v1.351h2.291V457.677Zm23.992,0-2.909,8.43-2.612-8.43H332.6l-2.611,8.43-2.91-8.43h-2.52l4.353,11.591h2.039l2.634-7.72,2.635,7.72h2.038l4.353-11.591h-2.543Zm4.863-4.7v16.288h2.337v-8.041a3.868,3.868,0,0,1,3.093-1.6,2.548,2.548,0,0,1,2.68,2.772v6.872h2.337v-7.445a4.238,4.238,0,0,0-4.513-4.353,4.835,4.835,0,0,0-3.6,1.535V452.98h-2.337Zm24.036,11.2v-1.008c0-3.528-1.832-5.7-5.017-5.7-3.573,0-5.681,2.7-5.681,6.048,0,3.574,2.36,5.956,6.094,5.956a7.584,7.584,0,0,0,4.261-1.237v-2.176a6.957,6.957,0,0,1-4.147,1.4c-2.336,0-3.711-1.214-3.94-3.275h8.43Zm-8.384-1.764a3.112,3.112,0,0,1,3.207-2.91,2.673,2.673,0,0,1,2.864,2.91h-6.071Zm11.367-4.742v11.591h2.336v-7.926a3.449,3.449,0,0,1,3.07-1.627,5.446,5.446,0,0,1,1.466.229v-2.153a5.875,5.875,0,0,0-1.4-.183,3.568,3.568,0,0,0-3.184,1.626v-1.557h-2.291Zm19.017,6.506v-1.008c0-3.528-1.833-5.7-5.017-5.7-3.574,0-5.681,2.7-5.681,6.048,0,3.574,2.359,5.956,6.093,5.956a7.581,7.581,0,0,0,4.261-1.237v-2.176a6.952,6.952,0,0,1-4.146,1.4c-2.337,0-3.711-1.214-3.94-3.275h8.43Zm-8.384-1.764a3.111,3.111,0,0,1,3.207-2.91,2.672,2.672,0,0,1,2.863,2.91h-6.07Zm19.064-4.742-3.276,8.98-3.276-8.98h-2.635l4.765,11.591h2.291l4.765-11.591h-2.634Zm14.62,6.506v-1.008c0-3.528-1.833-5.7-5.017-5.7-3.574,0-5.682,2.7-5.682,6.048,0,3.574,2.36,5.956,6.094,5.956a7.584,7.584,0,0,0,4.261-1.237v-2.176a6.955,6.955,0,0,1-4.146,1.4c-2.337,0-3.712-1.214-3.941-3.275h8.431Zm-8.385-1.764a3.113,3.113,0,0,1,3.207-2.91,2.673,2.673,0,0,1,2.864,2.91h-6.071Zm11.367-4.742v11.591h2.337v-7.926a3.447,3.447,0,0,1,3.069-1.627,5.447,5.447,0,0,1,1.467.229v-2.153a5.89,5.89,0,0,0-1.4-.183,3.568,3.568,0,0,0-3.184,1.626v-1.557h-2.291Zm22.341,0-3.39,8.59-3.368-8.59h-2.543l4.742,11.385-0.343.916a2.565,2.565,0,0,1-2.52,1.7,4.924,4.924,0,0,1-1.833-.413v2.016a5.566,5.566,0,0,0,2.062.39c2.107,0,3.573-1.192,4.536-3.528l5.154-12.462h-2.5Zm9.374-.207A6,6,0,1,0,456.8,463.5,5.648,5.648,0,0,0,450.959,457.47Zm-3.482,5.979c0-2.313,1.328-3.825,3.482-3.825,2.176,0,3.5,1.535,3.5,3.848,0,2.337-1.329,3.826-3.5,3.826C448.805,467.3,447.477,465.786,447.477,463.449Zm22.546-5.772h-2.336v8.063a3.822,3.822,0,0,1-3.024,1.558,2.587,2.587,0,0,1-2.658-2.841v-6.78h-2.313v7.262a4.279,4.279,0,0,0,4.49,4.535,4.7,4.7,0,0,0,3.55-1.557v1.351h2.291V457.677Zm20.992,0H484.76c-3.6,0-5.177,2.176-5.177,4.421a3.882,3.882,0,0,0,2.039,3.5,1.7,1.7,0,0,0-1.512,1.649,1.845,1.845,0,0,0,1.649,1.718c-1.855.344-2.794,1.329-2.794,2.727,0,2.245,2.405,3.092,5.337,3.092,3.093,0,5.842-.985,5.842-3.528,0-2.634-2.864-3.047-4.582-3.115l-1.626-.069c-0.573-.023-1.718-0.092-1.718-0.893,0-.711.939-0.825,1.947-0.963,3.093-.389,4.948-1.718,4.948-4.123a2.642,2.642,0,0,0-1.214-2.36h3.116v-2.061Zm-9.874,13.836c0-1.283,1.558-1.512,3.3-1.512,2.5,0,3.482.436,3.482,1.421,0,1.26-1.627,1.58-3.6,1.58C482.538,473,481.141,472.75,481.141,471.513Zm0.641-9.415a2.588,2.588,0,1,1,2.566,2.359A2.367,2.367,0,0,1,481.782,462.1ZM498.1,457.47a6,6,0,1,0,5.842,6.025A5.648,5.648,0,0,0,498.1,457.47Zm-3.482,5.979c0-2.313,1.329-3.825,3.482-3.825,2.176,0,3.5,1.535,3.5,3.848,0,2.337-1.329,3.826-3.5,3.826C495.945,467.3,494.616,465.786,494.616,463.449Zm13.154,2.818a1.582,1.582,0,1,0,1.627,1.581A1.5,1.5,0,0,0,507.77,466.267Zm-396.581,20.3h-5.063V502.6h5.063c5.338,0,8-4.078,8-8.2C119.184,490.3,116.527,486.566,111.189,486.566Zm-2.657,13.768V488.811H111.1a5.293,5.293,0,0,1,5.613,5.612c0,2.91-1.81,5.911-5.613,5.911h-2.565ZM127.3,490.8a6,6,0,1,0,5.842,6.025A5.648,5.648,0,0,0,127.3,490.8Zm-3.482,5.979c0-2.314,1.329-3.826,3.482-3.826,2.177,0,3.5,1.535,3.5,3.849,0,2.336-1.328,3.825-3.5,3.825C125.146,500.631,123.817,499.119,123.817,496.783Zm26.121-5.773-2.91,8.43-2.611-8.43h-1.948l-2.611,8.43-2.91-8.43h-2.52l4.353,11.592h2.039l2.634-7.721,2.635,7.721h2.039l4.352-11.592h-2.542Zm4.863,0V502.6h2.336v-8.041a3.868,3.868,0,0,1,3.093-1.6,2.548,2.548,0,0,1,2.68,2.772V502.6h2.337v-7.446a4.237,4.237,0,0,0-4.513-4.352,4.779,4.779,0,0,0-3.642,1.58V491.01H154.8ZM171.254,502.6V486.314H168.94V502.6h2.314Zm8.822-11.8a6,6,0,1,0,5.841,6.025A5.648,5.648,0,0,0,180.076,490.8Zm-3.482,5.979c0-2.314,1.328-3.826,3.482-3.826,2.176,0,3.5,1.535,3.5,3.849,0,2.336-1.329,3.825-3.5,3.825C177.922,500.631,176.594,499.119,176.594,496.783Zm20.965,5.819v-7.927c0-2.428-1.6-3.871-4.444-3.871a6.834,6.834,0,0,0-4.261,1.374V494.4a6.522,6.522,0,0,1,4.078-1.557c1.466,0,2.314.572,2.314,1.534,0,0.917-.8,1.169-1.65,1.375l-1.558.366c-1.489.344-3.917,0.94-3.917,3.551,0,2.085,1.489,3.139,3.5,3.139a4.141,4.141,0,0,0,3.666-1.947V502.6h2.267Zm-7.124-3.07c0-1.237,1.077-1.558,2.153-1.833l1.008-.252a7.86,7.86,0,0,0,1.65-.573v1.054a3,3,0,0,1-3.116,2.978C191.145,500.906,190.435,500.494,190.435,499.532Zm21.515-13.218h-2.336v5.956a4.543,4.543,0,0,0-3.551-1.466c-3.253,0-5.613,2.5-5.613,5.979s2.36,6.025,5.59,6.025a4.5,4.5,0,0,0,3.62-1.627V502.6h2.29V486.314Zm-9.163,10.469c0-2.245,1.283-3.872,3.6-3.872a3.841,3.841,0,0,1,3.23,1.6v4.559a3.9,3.9,0,0,1-3.253,1.626C204.047,500.7,202.787,499.028,202.787,496.783Zm27.36-5.773h-4.628v-3.62h-2.336v3.62h-2.749v2.062h2.749v5.36a4.11,4.11,0,0,0,4.329,4.376,6.33,6.33,0,0,0,2.91-.756v-2.108a4.6,4.6,0,0,1-2.429.779,2.3,2.3,0,0,1-2.474-2.5v-5.154h4.628V491.01Zm2.8-4.7V502.6h2.337v-8.041a3.867,3.867,0,0,1,3.093-1.6,2.548,2.548,0,0,1,2.68,2.772V502.6h2.337v-7.446a4.237,4.237,0,0,0-4.513-4.352,4.835,4.835,0,0,0-3.6,1.535v-6.025h-2.337Zm24.036,11.2v-1.008c0-3.528-1.832-5.7-5.017-5.7-3.573,0-5.681,2.7-5.681,6.048,0,3.573,2.36,5.956,6.094,5.956a7.592,7.592,0,0,0,4.261-1.237v-2.177a6.952,6.952,0,0,1-4.147,1.4c-2.336,0-3.711-1.214-3.94-3.276h8.43Zm-8.384-1.764a3.111,3.111,0,0,1,3.207-2.909,2.672,2.672,0,0,1,2.864,2.909H248.6Zm25.5,6.85v-7.927c0-2.428-1.6-3.871-4.444-3.871a6.834,6.834,0,0,0-4.261,1.374V494.4a6.522,6.522,0,0,1,4.078-1.557c1.466,0,2.314.572,2.314,1.534,0,0.917-.8,1.169-1.65,1.375l-1.557.366c-1.49.344-3.918,0.94-3.918,3.551,0,2.085,1.489,3.139,3.5,3.139a4.141,4.141,0,0,0,3.666-1.947V502.6H274.1Zm-7.124-3.07c0-1.237,1.077-1.558,2.153-1.833l1.008-.252a7.86,7.86,0,0,0,1.65-.573v1.054a3,3,0,0,1-3.116,2.978C267.686,500.906,266.976,500.494,266.976,499.532Zm16.773-8.728a4.506,4.506,0,0,0-3.665,1.6v-1.4h-2.291V507h2.337v-5.842a4.5,4.5,0,0,0,3.5,1.444c3.78,0,5.658-3.024,5.658-6C289.293,493.69,287.438,490.8,283.749,490.8Zm-3.619,8.063v-4.352a3.864,3.864,0,0,1,3.276-1.6,3.467,3.467,0,0,1,3.551,3.734c0,1.925-1.1,3.849-3.551,3.849A3.914,3.914,0,0,1,280.13,498.867Zm18.125-8.063a4.506,4.506,0,0,0-3.665,1.6v-1.4H292.3V507h2.337v-5.842a4.5,4.5,0,0,0,3.5,1.444c3.78,0,5.658-3.024,5.658-6C303.8,493.69,301.944,490.8,298.255,490.8Zm-3.619,8.063v-4.352a3.863,3.863,0,0,1,3.276-1.6,3.466,3.466,0,0,1,3.55,3.734c0,1.925-1.1,3.849-3.55,3.849A3.914,3.914,0,0,1,294.636,498.867Zm27.337-1.466-2.956-2.978c2.039-1.168,3.024-2.382,3.024-4.1a3.743,3.743,0,0,0-4.032-3.757,3.924,3.924,0,0,0-4.215,3.871c0,1.329.687,2.428,1.9,3.734-1.993,1.031-3.047,2.429-3.047,4.261,0,2.589,2.016,4.376,4.856,4.376a6.244,6.244,0,0,0,4.674-1.993l1.741,1.787h3.161l-3.5-3.574a15.189,15.189,0,0,0,2.039-5.017h-2.428A13.913,13.913,0,0,1,321.973,497.4Zm-6.965.871a3.051,3.051,0,0,1,2.062-2.68l3.62,3.688a4,4,0,0,1-2.978,1.306A2.408,2.408,0,0,1,315.008,498.272Zm1.054-7.743a1.735,1.735,0,0,1,1.856-1.787,1.683,1.683,0,0,1,1.832,1.695c0,1.008-.687,1.787-2.153,2.543C316.474,491.88,316.062,491.331,316.062,490.529ZM338.589,502.6V486.314h-2.314V502.6h2.314Zm13.7-5.086v-1.008c0-3.528-1.832-5.7-5.017-5.7-3.573,0-5.681,2.7-5.681,6.048,0,3.573,2.36,5.956,6.094,5.956a7.592,7.592,0,0,0,4.261-1.237v-2.177a6.952,6.952,0,0,1-4.147,1.4c-2.336,0-3.711-1.214-3.94-3.276h8.43Zm-8.384-1.764a3.111,3.111,0,0,1,3.207-2.909,2.672,2.672,0,0,1,2.864,2.909h-6.071ZM363.5,491.01h-4.628v-3.62h-2.336v3.62h-2.749v2.062h2.749v5.36a4.11,4.11,0,0,0,4.329,4.376,6.33,6.33,0,0,0,2.91-.756v-2.108a4.6,4.6,0,0,1-2.429.779,2.3,2.3,0,0,1-2.474-2.5v-5.154H363.5V491.01Zm1.836,0.573h2.154l1.4-5.957H366.5Zm5.019,7.72v2.222a8.026,8.026,0,0,0,4.444,1.283c2.589,0,4.559-1.26,4.559-3.528,0-2.474-2.36-3-3.459-3.253l-1.329-.3c-1.077-.252-1.924-0.5-1.924-1.42,0-1.031,1.031-1.512,2.336-1.512a6.485,6.485,0,0,1,3.414,1.008v-2.131a7.11,7.11,0,0,0-3.5-.87c-2.543,0-4.536,1.053-4.536,3.528,0,2.405,1.833,2.978,3.688,3.413L375.186,498c0.916,0.229,1.832.5,1.832,1.4,0,0.871-.847,1.4-2.313,1.4A7.393,7.393,0,0,1,370.352,499.3Zm16.821,0v2.222a8.026,8.026,0,0,0,4.444,1.283c2.589,0,4.559-1.26,4.559-3.528,0-2.474-2.36-3-3.459-3.253l-1.329-.3c-1.077-.252-1.924-0.5-1.924-1.42,0-1.031,1.031-1.512,2.336-1.512a6.485,6.485,0,0,1,3.414,1.008v-2.131a7.11,7.11,0,0,0-3.5-.87c-2.543,0-4.536,1.053-4.536,3.528,0,2.405,1.833,2.978,3.688,3.413L392.007,498c0.916,0.229,1.832.5,1.832,1.4,0,0.871-.847,1.4-2.314,1.4A7.392,7.392,0,0,1,387.173,499.3Zm20.209-8.293h-4.628v-3.62h-2.336v3.62h-2.749v2.062h2.749v5.36a4.11,4.11,0,0,0,4.33,4.376,6.329,6.329,0,0,0,2.909-.756v-2.108a4.6,4.6,0,0,1-2.428.779,2.3,2.3,0,0,1-2.475-2.5v-5.154h4.628V491.01ZM418.817,502.6v-7.927c0-2.428-1.6-3.871-4.444-3.871a6.829,6.829,0,0,0-4.261,1.374V494.4a6.52,6.52,0,0,1,4.078-1.557c1.466,0,2.313.572,2.313,1.534,0,0.917-.8,1.169-1.649,1.375l-1.558.366c-1.489.344-3.917,0.94-3.917,3.551,0,2.085,1.489,3.139,3.5,3.139a4.14,4.14,0,0,0,3.665-1.947V502.6h2.268Zm-7.124-3.07c0-1.237,1.076-1.558,2.153-1.833l1.008-.252a7.833,7.833,0,0,0,1.649-.573v1.054a3,3,0,0,1-3.115,2.978C412.4,500.906,411.693,500.494,411.693,499.532ZM430,491.01L426.61,499.6l-3.367-8.591H420.7l4.742,11.385-0.343.917a2.565,2.565,0,0,1-2.52,1.695,4.922,4.922,0,0,1-1.833-.412v2.016a5.581,5.581,0,0,0,2.062.389c2.107,0,3.573-1.191,4.536-3.528L432.5,491.01H430Zm11.873-1.947a1.583,1.583,0,1,0,0-3.162A1.582,1.582,0,1,0,441.874,489.063ZM440.751,502.6h2.337V491.01h-2.337V502.6Zm6.073-11.592V502.6h2.337v-8.041a3.866,3.866,0,0,1,3.092-1.6,2.548,2.548,0,0,1,2.681,2.772V502.6h2.336v-7.446a4.237,4.237,0,0,0-4.513-4.352,4.779,4.779,0,0,0-3.642,1.58V491.01h-2.291Zm28.551,0h-4.627v-3.62h-2.337v3.62h-2.749v2.062h2.749v5.36a4.11,4.11,0,0,0,4.33,4.376,6.329,6.329,0,0,0,2.909-.756v-2.108a4.6,4.6,0,0,1-2.428.779,2.3,2.3,0,0,1-2.474-2.5v-5.154h4.627V491.01Zm7.816-.206a6,6,0,1,0,5.841,6.025A5.648,5.648,0,0,0,483.191,490.8Zm-3.482,5.979c0-2.314,1.328-3.826,3.482-3.826,2.176,0,3.505,1.535,3.505,3.849,0,2.336-1.329,3.825-3.505,3.825C481.037,500.631,479.709,499.119,479.709,496.783Zm22.546-5.773h-2.337v8.064a3.818,3.818,0,0,1-3.023,1.557,2.587,2.587,0,0,1-2.658-2.84V491.01h-2.314v7.262a4.28,4.28,0,0,0,4.49,4.536,4.7,4.7,0,0,0,3.551-1.558V502.6h2.291V491.01Zm9.123,1.947a6.036,6.036,0,0,1,3.276,1.077v-2.177a6.016,6.016,0,0,0-9.416,4.972,5.7,5.7,0,0,0,5.934,5.979,6.114,6.114,0,0,0,3.482-1.031v-2.222a5.708,5.708,0,0,1-3.3,1.076,3.539,3.539,0,0,1-3.8-3.779A3.637,3.637,0,0,1,511.378,492.957Zm6.257-6.643V502.6h2.337v-8.041a3.867,3.867,0,0,1,3.093-1.6,2.548,2.548,0,0,1,2.68,2.772V502.6h2.337v-7.446a4.237,4.237,0,0,0-4.513-4.352,4.835,4.835,0,0,0-3.6,1.535v-6.025h-2.337Zm17.21,0h-2.406v5.956l0.413,5.36h1.557l0.436-5.36v-5.956ZM532,501.181a1.627,1.627,0,1,0,1.627-1.58A1.516,1.516,0,0,0,532,501.181Z"/>
  <g id="CTA_copy_4" data-name="CTA copy 4">
    <path id="download_the_app" data-name="download the app" class="cls-2" d="M227.673,593.489h-3.561v10.518h3.561a5.086,5.086,0,0,0,5.244-5.364A4.921,4.921,0,0,0,227.673,593.489Zm-1.638,8.7v-6.882h1.578a3.142,3.142,0,0,1,3.336,3.351,3.293,3.293,0,0,1-3.336,3.531h-1.578Zm16.31-8.94a5.522,5.522,0,1,0,5.529,5.514A5.323,5.323,0,0,0,242.345,593.249Zm-3.561,5.514a3.569,3.569,0,1,1,3.561,3.621A3.408,3.408,0,0,1,238.784,598.763Zm25.308-5.274-2.269,8.159-2.223-8.159h-1.924l-2.208,8.159-2.269-8.159h-2.013l3.365,10.518h1.908l2.179-7.528,2.194,7.528h1.908l3.35-10.518h-2Zm13.131,0v7.363l-5-7.363H270.3v10.518h1.923v-7.182l5,7.182h1.924V593.489h-1.924Zm7.024,10.518h6.791v-1.818H286.17v-8.7h-1.923v10.518Zm15.638-10.758a5.522,5.522,0,1,0,5.529,5.514A5.323,5.323,0,0,0,299.885,593.249Zm-3.561,5.514a3.569,3.569,0,1,1,3.561,3.621A3.407,3.407,0,0,1,296.324,598.763Zm20.139,5.244h2.059l-3.892-10.518h-2.073l-3.907,10.518h2.059l0.706-2.044h4.342Zm-4.432-3.847,1.547-4.462,1.578,4.462h-3.125Zm14.326-6.671H322.8v10.518h3.56a5.086,5.086,0,0,0,5.244-5.364A4.921,4.921,0,0,0,326.357,593.489Zm-1.637,8.7v-6.882H326.3a3.142,3.142,0,0,1,3.336,3.351,3.293,3.293,0,0,1-3.336,3.531H324.72Zm24.579-8.7H340.81v1.818h3.275v8.7h1.938v-8.7H349.3v-1.818Zm12.707,0h-1.924V597.8h-4.868v-4.313h-1.923v10.518h1.923v-4.4h4.868v4.4h1.924V593.489Zm12.312,10.518v-1.818h-5.289v-2.6H373v-1.818h-3.967v-2.465h5.034v-1.818h-6.942v10.518h7.2Zm17.415,0h2.058L389.9,593.489h-2.074l-3.906,10.518h2.058l0.706-2.044h4.343ZM387.3,600.16l1.548-4.462,1.578,4.462H387.3Zm14.537-6.671h-3.771v10.518h1.923v-3.771H401.7a3.379,3.379,0,0,0,3.561-3.441A3.237,3.237,0,0,0,401.837,593.489Zm-1.848,4.974v-3.156h1.848a1.416,1.416,0,0,1,1.488,1.5,1.561,1.561,0,0,1-1.623,1.653h-1.713Zm13.488-4.974h-3.771v10.518h1.923v-3.771h1.713a3.379,3.379,0,0,0,3.561-3.441A3.237,3.237,0,0,0,413.477,593.489Zm-1.848,4.974v-3.156h1.848a1.416,1.416,0,0,1,1.488,1.5,1.561,1.561,0,0,1-1.623,1.653h-1.713Z"/>
    <path class="cls-3" d="M153.5,570.96h333v57h-333v-57Z"/>
  </g>
  <path id="The_Banana_Republic_APP" data-name="The Banana Republic APP" class="cls-2" d="M139.475,286.605l0.075-.375-1.425-.675c-1.35-.6-1.425-1.425-1.125-2.7l11.626-46.5h11.1c2.325,0,3.3,1.2,3.45,3.375l0.15,2.475H163.7l2.026-8.1H125.373l-2.025,8.1h0.375l1.5-2.475c1.275-2.175,2.776-3.375,5.1-3.375h11.1l-11.626,46.5a3.43,3.43,0,0,1-2.475,2.7l-1.726.675-0.075.375h13.952Zm51.4-22.5c1.8-7.2-.525-12.6-7.651-12.6-5.7,0-10.427,4.575-13.2,10.125l7.5-29.775-9.9,1.8-0.075.375,0.975,0.45c1.275,0.6,1.425,1.275,1.125,2.55L158.174,282.78a3.758,3.758,0,0,1-2.55,3l-1.125.45-0.075.375h12.3l0.075-.375-0.975-.45c-1.275-.6-1.35-1.725-1.05-3l4.051-16.2c3.825-7.35,7.351-10.875,11.4-10.875,3.751,0,5.476,2.625,4.5,6.675l-5.176,20.926a2.552,2.552,0,0,0,2.55,3.3h6.676l0.075-.375-1.125-.45c-1.425-.6-1.95-1.5-1.35-3.75Zm18.211,4.725c9.751,0,14.927-5.625,14.927-10.575,0-4.125-3.676-6.75-9.151-6.75-11.1,0-20.478,10.95-20.478,23.025,0,8.251,4.126,13.126,11.552,13.126,6.375,0,10.876-3.9,14.026-10.425L219.591,277c-2.85,4.051-6.3,6.226-10.051,6.226-5.4,0-8.026-4.125-8.026-10.576a21.2,21.2,0,0,1,.525-4.725A31.3,31.3,0,0,0,209.09,268.829Zm5.026-15.3c2.4,0,3.6,1.875,3.6,4.35,0,3.6-2.925,8.55-9.9,8.55a17.548,17.548,0,0,1-5.176-.825C204.514,259.3,208.715,253.529,214.116,253.529Zm46.428,33.076a31.445,31.445,0,0,0,12.264-2.063,15.351,15.351,0,0,0,7.05-5.4,12.84,12.84,0,0,0,2.213-7.237,11.951,11.951,0,0,0-4.35-9.45q-4.351-3.75-11.7-4.8a17.432,17.432,0,0,0,8.139-4.238,9.307,9.307,0,0,0,3.038-6.862,10.555,10.555,0,0,0-2.1-6.488,13.651,13.651,0,0,0-5.963-4.387,23.617,23.617,0,0,0-8.963-1.575H243.217v0.375l1.575,0.675a3.462,3.462,0,0,1,1.425,1.125,2.938,2.938,0,0,1,.375,1.575v45a2.938,2.938,0,0,1-.375,1.575,3.462,3.462,0,0,1-1.425,1.125l-1.575.675v0.375h17.327Zm-6.751-29.325V237.405a7.231,7.231,0,0,1,2.175-.75,14.537,14.537,0,0,1,3-.3q5.249,0,8.138,2.737A9.516,9.516,0,0,1,270,246.33a11.216,11.216,0,0,1-2.813,7.875,10.089,10.089,0,0,1-7.838,3.075h-5.551Zm7.426,27.075a24.276,24.276,0,0,1-7.426-1.125v-23.7h6.676q7.2,0,10.576,3.6a12.169,12.169,0,0,1,3.375,8.625,14.357,14.357,0,0,1-1.275,5.925,11.016,11.016,0,0,1-4.238,4.762,13.961,13.961,0,0,1-7.688,1.913h0Zm67.17,1.2a6,6,0,0,1-3.151-3.3l-20.4-49.2h-0.375L284.284,282.18a6.291,6.291,0,0,1-3.151,3.375l-1.35.675v0.375h9.226V286.23l-1.5-.6a1.54,1.54,0,0,1-1.05-1.5,3.021,3.021,0,0,1,.225-1.2l5.1-12.525h21.452l5.1,12.525a2.825,2.825,0,0,1,.225,1.125,1.683,1.683,0,0,1-1.05,1.575l-1.426.6v0.375h13.8V286.23Zm-16.127-17.4H292.685l9.751-23.925Zm61.9,19.35v-49.65a3.092,3.092,0,0,1,.375-1.65,3.013,3.013,0,0,1,1.425-1.05l1.575-.675v-0.375h-9.376v0.375l1.575,0.675a3.029,3.029,0,0,1,1.425,1.05,3.1,3.1,0,0,1,.375,1.65v35.85l-30.753-39.6h-9.3v0.375l1.575,0.675a3.029,3.029,0,0,1,1.425,1.05,3.1,3.1,0,0,1,.375,1.65v45a3.1,3.1,0,0,1-.375,1.65,3.029,3.029,0,0,1-1.425,1.05l-1.575.675v0.375h9.376V286.23l-1.575-.675a3.022,3.022,0,0,1-1.426-1.05,3.1,3.1,0,0,1-.375-1.65v-42l36.3,46.65h0.376Zm51.717-1.95a5.99,5.99,0,0,1-3.15-3.3l-20.4-49.2h-0.375L381.771,282.18a6.292,6.292,0,0,1-3.15,3.375l-1.35.675v0.375H386.5V286.23l-1.5-.6a1.541,1.541,0,0,1-1.051-1.5,3,3,0,0,1,.226-1.2l5.1-12.525h21.453l5.1,12.525a2.825,2.825,0,0,1,.225,1.125A1.682,1.682,0,0,1,415,285.63l-1.425.6v0.375h13.8V286.23Zm-16.127-17.4H390.172l9.751-23.925Zm61.9,19.35v-49.65a3.092,3.092,0,0,1,.375-1.65,3.018,3.018,0,0,1,1.425-1.05l1.575-.675v-0.375h-9.376v0.375l1.575,0.675a3.032,3.032,0,0,1,1.426,1.05,3.111,3.111,0,0,1,.375,1.65v35.85l-30.754-39.6h-9.3v0.375l1.575,0.675a3.024,3.024,0,0,1,1.425,1.05,3.1,3.1,0,0,1,.376,1.65v45a3.1,3.1,0,0,1-.376,1.65,3.024,3.024,0,0,1-1.425,1.05l-1.575.675v0.375h9.376V286.23l-1.575-.675a3.018,3.018,0,0,1-1.425-1.05,3.092,3.092,0,0,1-.375-1.65v-42l36.3,46.65h0.375Zm51.718-1.95a5.992,5.992,0,0,1-3.151-3.3l-20.4-49.2h-0.375L479.259,282.18a6.294,6.294,0,0,1-3.151,3.375l-1.35.675v0.375h9.226V286.23l-1.5-.6a1.54,1.54,0,0,1-1.05-1.5,3.021,3.021,0,0,1,.225-1.2l5.1-12.525h21.452l5.1,12.525a2.825,2.825,0,0,1,.225,1.125,1.683,1.683,0,0,1-1.051,1.575l-1.425.6v0.375h13.8V286.23Zm-16.127-17.4H487.66l9.751-23.925ZM111.216,365.771V365.4l-1.575-.675a3.436,3.436,0,0,1-1.426-1.125,2.933,2.933,0,0,1-.375-1.575v-21.45h4.5a7.053,7.053,0,0,1,4.163,1.013,14.745,14.745,0,0,1,3.263,4.087l9.9,16.425a8.658,8.658,0,0,0,2.438,2.85,5.779,5.779,0,0,0,3.262.825h7.426V365.4a13.676,13.676,0,0,1-3.188-1.725,11.075,11.075,0,0,1-2.287-2.55l-8.1-12.3q-2.4-3.673-3.863-5.475a12.062,12.062,0,0,0-2.7-2.587,11.608,11.608,0,0,0-3.188-1.313,17.343,17.343,0,0,0,9.113-4.875,11.757,11.757,0,0,0,3.263-8.25,11.213,11.213,0,0,0-4.8-9.525q-4.8-3.523-12.827-3.525H97.264v0.375l1.575,0.675a3.483,3.483,0,0,1,1.426,1.125,2.952,2.952,0,0,1,.375,1.575v45a2.942,2.942,0,0,1-.375,1.575,3.451,3.451,0,0,1-1.426,1.125l-1.575.675v0.375h13.952Zm-3.376-27.45v-21.75a7.266,7.266,0,0,1,2.176-.75,14.6,14.6,0,0,1,3-.3q5.475,0,8.551,3a10.416,10.416,0,0,1,3.075,7.8,13.423,13.423,0,0,1-2.4,8.1,8.485,8.485,0,0,1-7.351,3.9H107.84Zm69.172,27.45,1.125-7.875h-0.375l-1.65,3q-1.425,2.626-5.1,2.625H154.66V338.4h11.1a5.287,5.287,0,0,1,2.438.488,3.3,3.3,0,0,1,1.462,1.687l0.975,2.1h0.375v-10.8h-0.375l-0.975,2.1a3.291,3.291,0,0,1-1.462,1.688,5.274,5.274,0,0,1-2.438.487h-11.1V315.521h14.326a5.841,5.841,0,0,1,2.813.563,3.888,3.888,0,0,1,1.613,2.062l0.975,2.475h0.375v-7.35H144.083v0.375l1.576,0.675a3.041,3.041,0,0,1,1.425,1.05,3.116,3.116,0,0,1,.375,1.65v45a3.106,3.106,0,0,1-.375,1.65,3.027,3.027,0,0,1-1.425,1.05l-1.576.675v0.375h32.929Zm16.509,0V365.4l-1.575-.675a3.016,3.016,0,0,1-1.426-1.05,3.1,3.1,0,0,1-.375-1.65v-21.75a35.131,35.131,0,0,0,8.176.75q8.251,0,12.452-4.125a14,14,0,0,0,4.2-10.425,10.853,10.853,0,0,0-2.325-6.825,15.2,15.2,0,0,0-6.526-4.687,25.593,25.593,0,0,0-9.6-1.688H179.569v0.375l1.575,0.675a3.039,3.039,0,0,1,1.426,1.05,3.116,3.116,0,0,1,.375,1.65v45a3.106,3.106,0,0,1-.375,1.65,3.026,3.026,0,0,1-1.426,1.05l-1.575.675v0.375h13.952Zm3.675-27a25.083,25.083,0,0,1-7.051-1.05v-21.15a7.266,7.266,0,0,1,2.176-.75,14.6,14.6,0,0,1,3-.3q5.925,0,9.188,3.113a10.916,10.916,0,0,1,3.263,8.287,12.755,12.755,0,0,1-2.812,8.513,9.608,9.608,0,0,1-7.764,3.337h0Zm40.842,28.35q8.475,0,13.2-4.35t4.726-12.075v-33.75a2.894,2.894,0,0,1,.375-1.612,3.156,3.156,0,0,1,1.425-1.013l1.575-.675v-0.375h-9.376v0.375l1.575,0.675a3.173,3.173,0,0,1,1.425,1.013,2.9,2.9,0,0,1,.375,1.612V351.3q0,6-3.788,9.413a13.848,13.848,0,0,1-9.638,3.412q-6.9,0-10.464-3.187t-3.563-9.038v-34.95a2.894,2.894,0,0,1,.375-1.612,3.168,3.168,0,0,1,1.425-1.013l1.576-.675v-0.375H215.31v0.375l1.575,0.675a3.168,3.168,0,0,1,1.425,1.013,2.9,2.9,0,0,1,.375,1.612v34.2q0,7.65,5.251,11.813t14.1,4.162h0Zm40.729-1.35a31.439,31.439,0,0,0,12.264-2.062,15.373,15.373,0,0,0,7.051-5.4,12.849,12.849,0,0,0,2.213-7.238,11.951,11.951,0,0,0-4.351-9.45q-4.352-3.748-11.7-4.8a17.418,17.418,0,0,0,8.138-4.237,9.309,9.309,0,0,0,3.038-6.863,10.559,10.559,0,0,0-2.1-6.487,13.665,13.665,0,0,0-5.963-4.388,23.623,23.623,0,0,0-8.964-1.575H261.44v0.375l1.575,0.675a3.471,3.471,0,0,1,1.425,1.125,2.942,2.942,0,0,1,.376,1.575v45a2.933,2.933,0,0,1-.376,1.575,3.439,3.439,0,0,1-1.425,1.125l-1.575.675v0.375h17.327Zm-6.751-29.325V316.571a7.266,7.266,0,0,1,2.176-.75,14.6,14.6,0,0,1,3-.3q5.25,0,8.138,2.738a9.51,9.51,0,0,1,2.888,7.237,11.208,11.208,0,0,1-2.813,7.875,10.085,10.085,0,0,1-7.838,3.075h-5.551Zm7.426,27.075a24.28,24.28,0,0,1-7.426-1.125V338.7h6.676q7.2,0,10.576,3.6a12.167,12.167,0,0,1,3.376,8.625,14.366,14.366,0,0,1-1.275,5.925,11.019,11.019,0,0,1-4.238,4.763,13.962,13.962,0,0,1-7.689,1.912h0Zm54.576,2.25,1.125-7.8h-0.375l-1.5,2.925a4.363,4.363,0,0,1-1.875,2.063,6.76,6.76,0,0,1-3,.562H312.716v-46.5a3.1,3.1,0,0,1,.375-1.65,3.025,3.025,0,0,1,1.425-1.05l1.575-.675v-0.375H302.14v0.375l1.575,0.675a3.035,3.035,0,0,1,1.425,1.05,3.106,3.106,0,0,1,.375,1.65v45a3.1,3.1,0,0,1-.375,1.65,3.022,3.022,0,0,1-1.425,1.05l-1.575.675v0.375h31.878Zm16.569,0V365.4l-1.575-.675a3.012,3.012,0,0,1-1.425-1.05,3.087,3.087,0,0,1-.375-1.65v-45a3.1,3.1,0,0,1,.375-1.65,3.025,3.025,0,0,1,1.425-1.05l1.575-.675v-0.375H336.636v0.375l1.575,0.675a3.035,3.035,0,0,1,1.425,1.05,3.106,3.106,0,0,1,.375,1.65v45a3.1,3.1,0,0,1-.375,1.65,3.022,3.022,0,0,1-1.425,1.05l-1.575.675v0.375h13.951Zm29.966,1.35q12.6,0,20.027-6.375v-10.5h-0.375a21.494,21.494,0,0,1-6.713,10.838q-4.613,3.787-12.489,3.787a16.746,16.746,0,0,1-10.876-3.637,22.554,22.554,0,0,1-6.826-9.675,36.107,36.107,0,0,1-2.325-13.088,29.873,29.873,0,0,1,2.438-12.15,21.015,21.015,0,0,1,7.05-8.85,19.852,19.852,0,0,1,22.728.563q4.763,3.864,7.013,11.287h0.375v-12a31.078,31.078,0,0,0-8.926-3.975,41.184,41.184,0,0,0-11.1-1.425,27.632,27.632,0,0,0-14.026,3.713,27.975,27.975,0,0,0-10.239,10.05,26.476,26.476,0,0,0-3.788,13.837,27.618,27.618,0,0,0,3.6,13.95,26.455,26.455,0,0,0,10.014,9.975,28.514,28.514,0,0,0,14.439,3.675h0Zm88.659-2.4a5.987,5.987,0,0,1-3.15-3.3l-20.4-49.2h-0.375l-20.178,49.125a6.292,6.292,0,0,1-3.15,3.375l-1.35.675v0.375h9.226V365.4l-1.5-.6a1.54,1.54,0,0,1-1.051-1.5,3.007,3.007,0,0,1,.226-1.2l5.1-12.525h21.453l5.1,12.525a2.832,2.832,0,0,1,.225,1.125,1.68,1.68,0,0,1-1.05,1.575l-1.425.6v0.375h13.8V365.4Zm-16.127-17.4H433.508l9.751-23.925Zm33.169,18.45V365.4l-1.576-.675a3.017,3.017,0,0,1-1.425-1.05,3.1,3.1,0,0,1-.375-1.65v-21.75a35.131,35.131,0,0,0,8.176.75q8.25,0,12.452-4.125a14,14,0,0,0,4.2-10.425,10.853,10.853,0,0,0-2.325-6.825,15.2,15.2,0,0,0-6.526-4.687,25.6,25.6,0,0,0-9.6-1.688H472.3v0.375l1.575,0.675a3.03,3.03,0,0,1,1.425,1.05,3.106,3.106,0,0,1,.375,1.65v45a3.1,3.1,0,0,1-.375,1.65,3.017,3.017,0,0,1-1.425,1.05l-1.575.675v0.375h13.952Zm3.675-27a25.078,25.078,0,0,1-7.051-1.05v-21.15a7.269,7.269,0,0,1,2.175-.75,14.613,14.613,0,0,1,3-.3q5.925,0,9.188,3.113a10.916,10.916,0,0,1,3.263,8.287,12.75,12.75,0,0,1-2.813,8.513,9.606,9.606,0,0,1-7.763,3.337h0Zm32.066,27V365.4l-1.576-.675a3.012,3.012,0,0,1-1.425-1.05,3.087,3.087,0,0,1-.375-1.65v-21.75a35.131,35.131,0,0,0,8.176.75q8.25,0,12.451-4.125a14,14,0,0,0,4.2-10.425,10.853,10.853,0,0,0-2.325-6.825,15.2,15.2,0,0,0-6.526-4.687,25.6,25.6,0,0,0-9.6-1.688H508.043v0.375l1.575,0.675a3.035,3.035,0,0,1,1.425,1.05,3.106,3.106,0,0,1,.375,1.65v45a3.1,3.1,0,0,1-.375,1.65,3.022,3.022,0,0,1-1.425,1.05l-1.575.675v0.375H522Zm3.675-27a25.073,25.073,0,0,1-7.051-1.05v-21.15a7.258,7.258,0,0,1,2.175-.75,14.613,14.613,0,0,1,3-.3q5.924,0,9.188,3.113a10.919,10.919,0,0,1,3.263,8.287,12.75,12.75,0,0,1-2.813,8.513,9.606,9.606,0,0,1-7.763,3.337h0Z"/>
</svg>
