<svg id="_02B_TXT_XL.svg" data-name="02B_TXT_XL.svg" xmlns="http://www.w3.org/2000/svg" width="960" height="965" viewBox="0 0 960 965">
  <defs>
    <style>
      .cls-1, .cls-2 {
        fill-rule: evenodd;
      }

      .cls-2 {
        fill: none;
        opacity: 0;
      }
    </style>
  </defs>
  <g id="Learn_More_CTA" data-name="Learn More CTA">
    <path id="Line_1" data-name="Line 1" class="cls-1" d="M1376.01,1440.99v-3.98h125.98v3.98H1376.01Z" transform="translate(-960 -590)"/>
    <path id="shop_now" data-name="shop now" class="cls-1" d="M1377.28,1422.22v3.18a7.887,7.887,0,0,0,4.7,1.56c2.76,0,5.16-1.56,5.16-4.56,0-2.68-1.92-3.4-3.94-3.9l-1.14-.28c-1.32-.32-2.22-0.6-2.22-1.56,0-1.04,1.02-1.48,2.28-1.48a8.383,8.383,0,0,1,3.94,1.14v-2.9a7.455,7.455,0,0,0-4.02-1.14c-2.66,0-5.16,1.4-5.16,4.44,0,2.88,2.26,3.78,4.18,4.22l1.32,0.3c1.12,0.26,1.78.52,1.78,1.36,0,1.04-1.04,1.48-2.26,1.48A7.8,7.8,0,0,1,1377.28,1422.22Zm26.04-9.62h-2.92v5.56h-5.94v-5.56h-2.92v14h2.92v-5.68h5.94v5.68h2.92v-14Zm11.86-.32a7.351,7.351,0,1,0,7.44,7.34A7.133,7.133,0,0,0,1415.18,1412.28Zm-4.48,7.34a4.48,4.48,0,1,1,4.48,4.46A4.231,4.231,0,0,1,1410.7,1419.62Zm21.46-7.02h-5.14v14h2.92v-4.88h2.04a4.589,4.589,0,0,0,4.86-4.64A4.415,4.415,0,0,0,1432.16,1412.6Zm-2.22,6.42v-3.64h2.24a1.638,1.638,0,0,1,1.72,1.72,1.832,1.832,0,0,1-1.9,1.92h-2.06Zm26.86-6.42v9.16l-6.16-9.16h-2.9v14h2.92v-8.86l6.16,8.86h2.92v-14h-2.94Zm14.8-.32a7.351,7.351,0,1,0,7.44,7.34A7.133,7.133,0,0,0,1471.6,1412.28Zm-4.48,7.34a4.48,4.48,0,1,1,4.48,4.46A4.231,4.231,0,0,1,1467.12,1419.62Zm31.56-7.02-2.74,10.48-2.7-10.48h-2.92l-2.7,10.48-2.74-10.48h-3.04l4.4,14h2.9l2.64-9.52,2.64,9.52h2.9l4.4-14h-3.04Z" transform="translate(-960 -590)"/>
  </g>
  <path id="Personalized_e-gift_cards" data-name="Personalized e-gift cards" class="cls-1" d="M1265.69,758.682V758.4l-1.17-.5a1.842,1.842,0,0,1-1.35-2.016V739.639a27.947,27.947,0,0,0,6.11.56c8.62,0,12.43-4.985,12.43-10.865,0-5.825-5.6-9.858-13.78-9.858h-12.65v0.28l1.17,0.5a1.844,1.844,0,0,1,1.35,2.017v33.6a1.842,1.842,0,0,1-1.35,2.016l-1.17.5v0.28h10.41Zm2.75-20.163a18.17,18.17,0,0,1-5.27-.784V721.941a8.948,8.948,0,0,1,3.87-.784c5.99,0,9.3,3.472,9.3,8.513C1276.34,734.6,1273.54,738.519,1268.44,738.519Zm40.32,20.163,0.84-5.881h-0.28l-1.23,2.24a3.86,3.86,0,0,1-3.81,1.96h-12.21V738.239h8.29a2.725,2.725,0,0,1,2.91,1.624l0.73,1.568h0.28v-8.065H1304l-0.73,1.568a2.724,2.724,0,0,1-2.91,1.625h-8.29v-15.4h10.7c1.73,0,2.69.448,3.3,1.96l0.73,1.848h0.28v-5.489h-22.91v0.28l1.18,0.5a1.836,1.836,0,0,1,1.34,2.017v33.6a1.834,1.834,0,0,1-1.34,2.016l-1.18.5v0.28h24.59Zm13.27,0V758.4l-1.18-.5a1.973,1.973,0,0,1-1.34-2.016V739.863h3.36c2.8,0,3.75.84,5.54,3.809l7.4,12.265c1.17,1.96,2.18,2.745,4.25,2.745h5.55V758.4a7.359,7.359,0,0,1-4.09-3.193l-6.05-9.185c-3.53-5.377-4.59-6.273-7.28-7,5.94-1.344,9.24-5.153,9.24-9.8,0-5.993-5.21-9.746-13.16-9.746h-12.66v0.28l1.18,0.5a1.975,1.975,0,0,1,1.34,2.017v33.6a1.973,1.973,0,0,1-1.34,2.016l-1.18.5v0.28h10.42Zm-2.52-36.741a8.9,8.9,0,0,1,3.86-.784c5.6,0,8.68,3.416,8.68,8.065a9.82,9.82,0,0,1-1.79,6.048,6.3,6.3,0,0,1-5.49,2.913h-5.26V721.941Zm38.19,37.749c5.99,0,12.77-4.257,12.77-12.1,0-6.329-4.7-9.521-9.97-11.929-5.66-2.577-8.51-5.153-8.51-9.3,0-3.584,2.24-6.273,6.44-6.273,3.75,0,7.11,1.681,9.07,7.225h0.28v-6.889a19.3,19.3,0,0,0-9.24-1.96c-6.61,0-11.14,4.313-11.14,9.409,0,5.489,3.69,9.186,9.24,11.874,6.38,3.08,9.07,5.657,9.07,9.689,0,5.209-3.02,8.57-7.51,8.57-6.72,0-9.07-3.7-10.97-10.642h-0.28v8.569A17.166,17.166,0,0,0,1357.7,759.69Zm36.46,0a20.614,20.614,0,1,0-20.95-20.611A20.73,20.73,0,0,0,1394.16,759.69Zm0.56-1.68c-8.85,0-15.18-8.906-15.18-19.715,0-9.689,5.6-18.147,14.06-18.147,8.79,0,15.18,8.962,15.18,19.715C1408.78,749.552,1403.17,758.01,1394.72,758.01Zm54.6,1.344V722.277a1.836,1.836,0,0,1,1.34-2.017l1.18-.5v-0.28h-7v0.28l1.17,0.5a1.844,1.844,0,0,1,1.35,2.017v26.771l-22.96-29.572h-6.95v0.28l1.18,0.5a1.836,1.836,0,0,1,1.34,2.017v33.6a1.834,1.834,0,0,1-1.34,2.016l-1.18.5v0.28h7V758.4l-1.17-.5a1.833,1.833,0,0,1-1.35-2.016V724.517l27.11,34.837h0.28Zm39.09-1.457a4.27,4.27,0,0,1-2.36-2.464l-15.23-36.741h-0.28l-15.07,36.685a4.708,4.708,0,0,1-2.35,2.52l-1.01.5v0.28H1459V758.4l-1.12-.448c-0.89-.337-0.95-1.177-0.61-2.017l3.81-9.353h16.01l3.81,9.353a1.377,1.377,0,0,1-.61,2.017l-1.07.448v0.28h10.31V758.4Zm-19.38-30.86,7.34,17.867h-14.62Zm45.7,31.645,0.84-5.825h-0.28l-1.12,2.184a3.632,3.632,0,0,1-3.65,1.96h-11.7V722.277a1.975,1.975,0,0,1,1.34-2.017l1.18-.5v-0.28h-10.42v0.28l1.18,0.5a1.975,1.975,0,0,1,1.34,2.017v33.6a1.973,1.973,0,0,1-1.34,2.016l-1.18.5v0.28h23.81Zm13.38,0V758.4l-1.18-.5a1.834,1.834,0,0,1-1.34-2.016v-33.6a1.836,1.836,0,0,1,1.34-2.017l1.18-.5v-0.28h-10.42v0.28l1.18,0.5a1.836,1.836,0,0,1,1.34,2.017v33.6a1.834,1.834,0,0,1-1.34,2.016l-1.18.5v0.28h10.42Zm29.4,0,1.01-7h-0.28l-1.12,2.184c-1.12,2.184-2.13,3.136-3.87,3.136h-16.58l21.68-37.245v-0.28H1531.8v5.657h0.28l0.67-1.456c0.73-1.624,1.4-2.52,3.42-2.52h15.91L1530.51,758.4v0.28h27Zm28,0,0.84-5.881h-0.28l-1.23,2.24a3.869,3.869,0,0,1-3.81,1.96h-12.21V738.239h8.29a2.732,2.732,0,0,1,2.91,1.624l0.73,1.568h0.28v-8.065h-0.28l-0.73,1.568a2.732,2.732,0,0,1-2.91,1.625h-8.29v-15.4h10.7c1.73,0,2.68.448,3.3,1.96l0.73,1.848h0.28v-5.489h-22.91v0.28l1.18,0.5a1.836,1.836,0,0,1,1.34,2.017v33.6a1.834,1.834,0,0,1-1.34,2.016l-1.18.5v0.28h24.59Zm17.69,0c13.16,0,22.29-8.234,22.29-19.6s-9.13-19.6-22.29-19.6h-14.84v0.28l1.18,0.5a1.836,1.836,0,0,1,1.34,2.017v33.6a1.834,1.834,0,0,1-1.34,2.016l-1.18.5v0.28h14.84Zm-6.94-37.525h6.94c10.7,0,15.91,7.113,15.91,17.922S1613.9,757,1603.2,757h-6.94V721.157ZM1295.6,814.682l0.84-5.881h-0.28l-1.23,2.24a3.86,3.86,0,0,1-3.81,1.96h-12.21V794.239h8.29a2.725,2.725,0,0,1,2.91,1.624l0.73,1.568h0.28v-8.065h-0.28l-0.73,1.568a2.724,2.724,0,0,1-2.91,1.625h-8.29v-15.4h10.7c1.73,0,2.69.448,3.3,1.96l0.73,1.848h0.28v-5.489h-22.91v0.28l1.18,0.5a1.836,1.836,0,0,1,1.34,2.017v33.6a1.834,1.834,0,0,1-1.34,2.016l-1.18.5v0.28h24.59Zm13.05-15.234v-2.689h-10.64v2.689h10.64Zm25.09,16.242c6.77,0,11.48-1.793,14.95-4.761v-10.3a1.836,1.836,0,0,1,1.34-2.017l1.18-.5v-0.28h-10.42v0.28l1.18,0.5a1.836,1.836,0,0,1,1.34,2.017v10.137a13.453,13.453,0,0,1-9.24,3.249c-9.86,0-14.95-9.466-14.95-19.715,0-9.689,5.54-18.147,15.18-18.147,7.28,0,11.93,4.2,14.11,11.314h0.28V778.5c-3.7-2.521-8.85-4.033-14.95-4.033a20.774,20.774,0,0,0-20.95,20.611C1312.79,806.561,1321.53,815.69,1333.74,815.69Zm30.12-1.008V814.4l-1.17-.5a1.842,1.842,0,0,1-1.35-2.016v-33.6a1.844,1.844,0,0,1,1.35-2.017l1.17-.5v-0.28h-10.42v0.28l1.18,0.5a1.836,1.836,0,0,1,1.34,2.017v33.6a1.834,1.834,0,0,1-1.34,2.016l-1.18.5v0.28h10.42Zm12.66,0V814.4l-1.18-.5a1.834,1.834,0,0,1-1.34-2.016V794.239h8.29a2.785,2.785,0,0,1,2.91,1.624l0.73,1.288h0.28v-7.5h-0.28l-0.73,1.288a2.785,2.785,0,0,1-2.91,1.625H1374v-15.4h10.69c1.74,0,2.69.448,3.31,1.96l0.73,1.848h0.28v-5.489H1366.1v0.28l1.18,0.5a1.836,1.836,0,0,1,1.34,2.017v33.6a1.834,1.834,0,0,1-1.34,2.016l-1.18.5v0.28h10.42Zm35.33,0V814.4l-1.17-.5a1.842,1.842,0,0,1-1.35-2.016V777.157h8.74c1.74,0,2.63.9,3.19,2.52l0.62,1.848h0.28v-6.049h-31.03v6.049h0.28l0.62-1.848c0.56-1.624,1.45-2.52,3.19-2.52h8.74v34.724a1.842,1.842,0,0,1-1.35,2.016l-1.17.5v0.28h10.41Zm44.02,1.008c6.78,0,11.48-1.793,14.95-4.761v-7.841h-0.28c-1.96,6.721-6.21,10.922-14.33,10.922-9.86,0-14.96-9.466-14.96-19.715,0-9.689,5.55-18.147,15.18-18.147,7.17,0,11.87,3.977,14.11,11.314h0.28V778.5c-3.69-2.521-8.85-4.033-14.95-4.033a20.774,20.774,0,0,0-20.95,20.611C1434.92,806.561,1443.66,815.69,1455.87,815.69Zm52.75-1.793a4.285,4.285,0,0,1-2.35-2.464l-15.23-36.741h-0.28l-15.07,36.685a4.708,4.708,0,0,1-2.35,2.52l-1.01.5v0.28h6.89V814.4l-1.12-.448c-0.9-.337-0.95-1.177-0.62-2.017l3.81-9.353h16.02l3.81,9.353a1.38,1.38,0,0,1-.62,2.017l-1.06.448v0.28h10.3V814.4Zm-19.38-30.86,7.34,17.867h-14.62Zm32.32,31.645V814.4l-1.18-.5a1.973,1.973,0,0,1-1.34-2.016V795.863h3.36c2.8,0,3.75.84,5.54,3.809l7.39,12.265c1.18,1.96,2.19,2.745,4.26,2.745h5.54V814.4a7.371,7.371,0,0,1-4.08-3.193l-6.05-9.185c-3.53-5.377-4.6-6.273-7.28-7,5.93-1.344,9.24-5.153,9.24-9.8,0-5.993-5.21-9.746-13.16-9.746h-12.66v0.28l1.17,0.5a1.972,1.972,0,0,1,1.35,2.017v33.6a1.97,1.97,0,0,1-1.35,2.016l-1.17.5v0.28h10.42Zm-2.52-36.741a8.9,8.9,0,0,1,3.86-.784c5.6,0,8.68,3.416,8.68,8.065a9.82,9.82,0,0,1-1.79,6.048,6.308,6.308,0,0,1-5.49,2.913h-5.26V777.941Zm41.83,36.741c13.16,0,22.29-8.234,22.29-19.6s-9.13-19.6-22.29-19.6h-14.84v0.28l1.17,0.5a1.844,1.844,0,0,1,1.35,2.017v33.6a1.842,1.842,0,0,1-1.35,2.016l-1.17.5v0.28h14.84Zm-6.95-37.525h6.95c10.69,0,15.9,7.113,15.9,17.922S1571.56,813,1560.87,813h-6.95V777.157Zm42.79,38.533c5.99,0,12.77-4.257,12.77-12.1,0-6.329-4.71-9.521-9.97-11.929-5.66-2.577-8.52-5.153-8.52-9.3,0-3.584,2.24-6.273,6.44-6.273,3.76,0,7.12,1.681,9.08,7.225h0.28v-6.889a19.357,19.357,0,0,0-9.24-1.96c-6.61,0-11.15,4.313-11.15,9.409,0,5.489,3.7,9.186,9.24,11.874,6.39,3.08,9.08,5.657,9.08,9.689,0,5.209-3.03,8.57-7.51,8.57-6.72,0-9.07-3.7-10.98-10.642h-0.28v8.569A17.174,17.174,0,0,0,1596.71,815.69Z" transform="translate(-960 -590)"/>
  <path id="Create_something_unique_by_customizing_your_gift_card_with_a_p" data-name="Create something unique by  customizing your gift card with a p" class="cls-1" d="M1306.36,1291.67a6.581,6.581,0,0,1,4.22,1.6v-1.86a7.116,7.116,0,0,0-4.3-1.38c-3.74,0-7.04,2.6-7.04,7.36,0,4.74,3.3,7.34,7.06,7.34a6.95,6.95,0,0,0,4.28-1.4v-1.84a6.461,6.461,0,0,1-4.2,1.6,5.336,5.336,0,0,1-5.4-5.7C1300.98,1293.97,1303.3,1291.67,1306.36,1291.67Zm7.46,2.7v9.98h1.64v-6.96a3.239,3.239,0,0,1,2.88-1.6,4.676,4.676,0,0,1,1.26.18v-1.5a5.409,5.409,0,0,0-1.24-.16,3.317,3.317,0,0,0-2.92,1.56v-1.5h-1.62Zm16.64,5.4v-0.68c0-3.02-1.48-4.9-4.24-4.9-3.16,0-4.86,2.46-4.86,5.24a4.835,4.835,0,0,0,5.2,5.1,6.2,6.2,0,0,0,3.64-1.12v-1.6a5.608,5.608,0,0,1-3.56,1.28c-2.24,0-3.58-1.22-3.7-3.32h7.52Zm-7.44-1.28a3,3,0,0,1,3.06-2.84,2.6,2.6,0,0,1,2.74,2.84h-5.8Zm17.86,5.86v-6.94c0-2-1.34-3.22-3.7-3.22a5.509,5.509,0,0,0-3.62,1.22v1.62a5.216,5.216,0,0,1,3.5-1.38c1.4,0,2.2.58,2.2,1.5,0,0.86-.7,1.1-1.56,1.3l-1.38.34c-1.26.3-3.4,0.84-3.4,3.08,0,1.84,1.36,2.66,3,2.66a3.8,3.8,0,0,0,3.36-1.82v1.64h1.6Zm-6.32-2.56c0-1.26,1.1-1.58,2.12-1.84l0.94-.24a6.932,6.932,0,0,0,1.64-.56v1.08a2.925,2.925,0,0,1-3.04,2.94A1.39,1.39,0,0,1,1334.56,1301.79Zm16.98-7.42h-4.12v-3.28h-1.64v3.28h-2.46v1.46h2.46v5.12a3.393,3.393,0,0,0,3.56,3.58,4.582,4.582,0,0,0,2.44-.7v-1.5a4.042,4.042,0,0,1-2.18.72,2.061,2.061,0,0,1-2.18-2.3v-4.92h4.12v-1.46Zm11.4,5.4v-0.68c0-3.02-1.48-4.9-4.24-4.9-3.16,0-4.86,2.46-4.86,5.24a4.835,4.835,0,0,0,5.2,5.1,6.2,6.2,0,0,0,3.64-1.12v-1.6a5.608,5.608,0,0,1-3.56,1.28c-2.24,0-3.58-1.22-3.7-3.32h7.52Zm-7.44-1.28a3,3,0,0,1,3.06-2.84,2.6,2.6,0,0,1,2.74,2.84h-5.8Zm15.32,3.28v1.64a6.663,6.663,0,0,0,3.76,1.12c2.1,0,3.82-1,3.82-2.94,0-2.04-1.9-2.48-2.94-2.74l-1.12-.26c-1.06-.26-1.9-0.54-1.9-1.46,0-1.04,1.04-1.5,2.24-1.5a5.439,5.439,0,0,1,2.92.9v-1.58a5.949,5.949,0,0,0-2.98-.76c-2,0-3.78.86-3.78,2.96,0,1.98,1.54,2.5,3.16,2.88l0.96,0.24c0.96,0.22,1.82.52,1.82,1.4,0,0.9-.88,1.42-2.26,1.42A6.036,6.036,0,0,1,1370.82,1301.77Zm14.98-7.58a5.175,5.175,0,1,0,4.94,5.2A4.838,4.838,0,0,0,1385.8,1294.19Zm-3.32,5.16c0-2.24,1.28-3.66,3.32-3.66s3.3,1.46,3.3,3.68c0,2.24-1.28,3.66-3.3,3.66C1383.74,1303.03,1382.48,1301.57,1382.48,1299.35Zm11.4-4.98v9.98h1.64v-7.1a3.256,3.256,0,0,1,2.68-1.56,2.4,2.4,0,0,1,2.44,2.7v5.96h1.64v-7.1a3.2,3.2,0,0,1,2.68-1.56,2.384,2.384,0,0,1,2.42,2.7v5.96h1.64v-6.26a3.648,3.648,0,0,0-3.84-3.9,4.357,4.357,0,0,0-3.52,1.76,3.808,3.808,0,0,0-6.16-.36v-1.22h-1.62Zm27.28,5.4v-0.68c0-3.02-1.48-4.9-4.24-4.9-3.16,0-4.86,2.46-4.86,5.24a4.835,4.835,0,0,0,5.2,5.1,6.2,6.2,0,0,0,3.64-1.12v-1.6a5.608,5.608,0,0,1-3.56,1.28c-2.24,0-3.58-1.22-3.7-3.32h7.52Zm-7.44-1.28a3,3,0,0,1,3.06-2.84,2.6,2.6,0,0,1,2.74,2.84h-5.8Zm17.52-4.12h-4.12v-3.28h-1.64v3.28h-2.46v1.46h2.46v5.12a3.393,3.393,0,0,0,3.56,3.58,4.582,4.582,0,0,0,2.44-.7v-1.5a4.042,4.042,0,0,1-2.18.72,2.061,2.061,0,0,1-2.18-2.3v-4.92h4.12v-1.46Zm3-4.24v14.22h1.64v-7.04a3.839,3.839,0,0,1,3.04-1.62,2.479,2.479,0,0,1,2.56,2.72v5.94h1.64v-6.38a3.675,3.675,0,0,0-3.94-3.78,4.142,4.142,0,0,0-3.3,1.52v-5.58h-1.64Zm13.4,2.28a1.159,1.159,0,0,0,1.26-1.14,1.146,1.146,0,0,0-1.26-1.18A1.161,1.161,0,1,0,1447.64,1292.41Zm-0.78,11.94h1.64v-9.98h-1.64v9.98Zm5.46-9.98v9.98h1.64v-7.04a3.839,3.839,0,0,1,3.04-1.62,2.479,2.479,0,0,1,2.56,2.72v5.94h1.64v-6.38a3.675,3.675,0,0,0-3.94-3.78,4.14,4.14,0,0,0-3.32,1.54v-1.36h-1.62Zm22,0h-5.34c-3.28,0-4.4,2.1-4.4,3.78a3.324,3.324,0,0,0,1.9,3.04,1.515,1.515,0,0,0-1.4,1.48,1.585,1.585,0,0,0,1.48,1.48c-1.66.28-2.52,1.18-2.52,2.4,0,1.9,2.06,2.61,4.54,2.61,2.62,0,5-.81,5-2.97,0-2.1-2.24-2.58-3.92-2.64l-1.38-.06c-0.5-.02-1.72-0.1-1.72-0.9,0-.68.92-0.82,1.88-0.94,2.68-.34,4.2-1.52,4.2-3.56a2.522,2.522,0,0,0-1.18-2.26h2.86v-1.46Zm-8.72,12.02c0-1.28,1.52-1.52,3.16-1.52,2.26,0,3.24.46,3.24,1.42,0,1.22-1.52,1.6-3.36,1.6C1467,1307.89,1465.6,1307.61,1465.6,1306.39Zm0.54-8.3a2.489,2.489,0,1,1,2.48,2.28A2.285,2.285,0,0,1,1466.14,1298.09Zm24.94-3.72h-1.64v7.08a3.7,3.7,0,0,1-2.94,1.58,2.506,2.506,0,0,1-2.56-2.8v-5.86h-1.62v6.26a3.688,3.688,0,0,0,3.92,3.9,4.115,4.115,0,0,0,3.22-1.48v1.3h1.62v-9.98Zm3.86,0v9.98h1.64v-7.04a3.839,3.839,0,0,1,3.04-1.62,2.479,2.479,0,0,1,2.56,2.72v5.94h1.64v-6.38a3.675,3.675,0,0,0-3.94-3.78,4.14,4.14,0,0,0-3.32,1.54v-1.36h-1.62Zm13.4-1.96a1.159,1.159,0,0,0,1.26-1.14,1.146,1.146,0,0,0-1.26-1.18A1.161,1.161,0,1,0,1508.34,1292.41Zm-0.78,11.94h1.64v-9.98h-1.64v9.98Zm14.52-9.98h-1.62v1.2a4.086,4.086,0,0,0-3.24-1.38,5.083,5.083,0,0,0,0,10.16,4.034,4.034,0,0,0,3.22-1.44v5.28h1.64v-13.82Zm-8.12,4.86a3.271,3.271,0,0,1,3.42-3.56,3.633,3.633,0,0,1,3.06,1.52v4.12a3.7,3.7,0,0,1-3.06,1.56A3.325,3.325,0,0,1,1513.96,1299.23Zm20.52-4.86h-1.64v7.08a3.7,3.7,0,0,1-2.94,1.58,2.506,2.506,0,0,1-2.56-2.8v-5.86h-1.62v6.26a3.688,3.688,0,0,0,3.92,3.9,4.115,4.115,0,0,0,3.22-1.48v1.3h1.62v-9.98Zm12.26,5.4v-0.68c0-3.02-1.48-4.9-4.24-4.9-3.16,0-4.86,2.46-4.86,5.24a4.835,4.835,0,0,0,5.2,5.1,6.2,6.2,0,0,0,3.64-1.12v-1.6a5.608,5.608,0,0,1-3.56,1.28c-2.24,0-3.58-1.22-3.7-3.32h7.52Zm-7.44-1.28a3,3,0,0,1,3.06-2.84,2.6,2.6,0,0,1,2.74,2.84h-5.8Zm21.32-4.3a4.316,4.316,0,0,0-3.38,1.42v-5.48h-1.64v14.22h1.62v-1.2a4.354,4.354,0,0,0,3.3,1.38c3.2,0,4.82-2.64,4.82-5.26C1565.34,1296.71,1563.78,1294.19,1560.62,1294.19Zm-3.38,7.32v-4.32a3.8,3.8,0,0,1,3.12-1.52,3.339,3.339,0,0,1,3.34,3.64c0,1.86-1.04,3.74-3.3,3.74A3.84,3.84,0,0,1,1557.24,1301.51Zm17.88-7.14-3.18,7.96-3.16-7.96h-1.8l4.18,9.92-0.38.92a2.329,2.329,0,0,1-2.3,1.56,4.163,4.163,0,0,1-1.6-.38v1.46a4.246,4.246,0,0,0,1.72.34c1.76,0,2.96-1,3.78-2.98l4.5-10.84h-1.76Zm-326.54,39.32a4.806,4.806,0,0,1,2.84.96v-1.56a4.814,4.814,0,0,0-2.94-.9,4.952,4.952,0,0,0-5.1,5.2,5.135,5.135,0,0,0,8.04,4.24v-1.56a4.854,4.854,0,0,1-2.84.96,3.354,3.354,0,0,1-3.56-3.62A3.445,3.445,0,0,1,1248.58,1333.69Zm14.64-1.32h-1.64v7.08a3.7,3.7,0,0,1-2.94,1.58,2.506,2.506,0,0,1-2.56-2.8v-5.86h-1.62v6.26a3.688,3.688,0,0,0,3.92,3.9,4.115,4.115,0,0,0,3.22-1.48v1.3h1.62v-9.98Zm3.28,7.4v1.64a6.663,6.663,0,0,0,3.76,1.12c2.1,0,3.82-1,3.82-2.94,0-2.04-1.9-2.48-2.94-2.74l-1.12-.26c-1.06-.26-1.9-0.54-1.9-1.46,0-1.04,1.04-1.5,2.24-1.5a5.439,5.439,0,0,1,2.92.9v-1.58a5.949,5.949,0,0,0-2.98-.76c-2,0-3.78.86-3.78,2.96,0,1.98,1.54,2.5,3.16,2.88l0.96,0.24c0.96,0.22,1.82.52,1.82,1.4,0,0.9-.88,1.42-2.26,1.42A6.036,6.036,0,0,1,1266.5,1339.77Zm17.64-7.4h-4.12v-3.28h-1.64v3.28h-2.46v1.46h2.46v5.12a3.393,3.393,0,0,0,3.56,3.58,4.582,4.582,0,0,0,2.44-.7v-1.5a4.042,4.042,0,0,1-2.18.72,2.061,2.061,0,0,1-2.18-2.3v-4.92h4.12v-1.46Zm7.26-.18a5.175,5.175,0,1,0,4.94,5.2A4.838,4.838,0,0,0,1291.4,1332.19Zm-3.32,5.16c0-2.24,1.28-3.66,3.32-3.66s3.3,1.46,3.3,3.68c0,2.24-1.28,3.66-3.3,3.66C1289.34,1341.03,1288.08,1339.57,1288.08,1337.35Zm11.4-4.98v9.98h1.64v-7.1a3.256,3.256,0,0,1,2.68-1.56,2.4,2.4,0,0,1,2.44,2.7v5.96h1.64v-7.1a3.2,3.2,0,0,1,2.68-1.56,2.384,2.384,0,0,1,2.42,2.7v5.96h1.64v-6.26a3.648,3.648,0,0,0-3.84-3.9,4.357,4.357,0,0,0-3.52,1.76,3.808,3.808,0,0,0-6.16-.36v-1.22h-1.62Zm19.66-1.96a1.159,1.159,0,0,0,1.26-1.14,1.146,1.146,0,0,0-1.26-1.18A1.161,1.161,0,1,0,1319.14,1330.41Zm-0.78,11.94H1320v-9.98h-1.64v9.98Zm6.92-1.46,5.82-7.34v-1.18h-7.96v1.46h5.78l-5.78,7.34v1.18h8.24v-1.46h-6.1Zm10.02-10.48a1.159,1.159,0,0,0,1.26-1.14,1.146,1.146,0,0,0-1.26-1.18A1.161,1.161,0,1,0,1335.3,1330.41Zm-0.78,11.94h1.64v-9.98h-1.64v9.98Zm5.46-9.98v9.98h1.64v-7.04a3.839,3.839,0,0,1,3.04-1.62,2.479,2.479,0,0,1,2.56,2.72v5.94h1.64v-6.38a3.675,3.675,0,0,0-3.94-3.78,4.14,4.14,0,0,0-3.32,1.54v-1.36h-1.62Zm22,0h-5.34c-3.28,0-4.4,2.1-4.4,3.78a3.324,3.324,0,0,0,1.9,3.04,1.515,1.515,0,0,0-1.4,1.48,1.585,1.585,0,0,0,1.48,1.48c-1.66.28-2.52,1.18-2.52,2.4,0,1.9,2.06,2.61,4.54,2.61,2.62,0,5-.81,5-2.97,0-2.1-2.24-2.58-3.92-2.64l-1.38-.06c-0.5-.02-1.72-0.1-1.72-0.9,0-.68.92-0.82,1.88-0.94,2.68-.34,4.2-1.52,4.2-3.56a2.522,2.522,0,0,0-1.18-2.26h2.86v-1.46Zm-8.72,12.02c0-1.28,1.52-1.52,3.16-1.52,2.26,0,3.24.46,3.24,1.42,0,1.22-1.52,1.6-3.36,1.6C1354.66,1345.89,1353.26,1345.61,1353.26,1344.39Zm0.54-8.3a2.489,2.489,0,1,1,2.48,2.28A2.285,2.285,0,0,1,1353.8,1336.09Zm22.7-3.72-3.18,7.96-3.16-7.96h-1.8l4.18,9.92-0.38.92a2.329,2.329,0,0,1-2.3,1.56,4.163,4.163,0,0,1-1.6-.38v1.46a4.246,4.246,0,0,0,1.72.34c1.76,0,2.96-1,3.78-2.98l4.5-10.84h-1.76Zm8.16-.18a5.175,5.175,0,1,0,4.94,5.2A4.838,4.838,0,0,0,1384.66,1332.19Zm-3.32,5.16c0-2.24,1.28-3.66,3.32-3.66s3.3,1.46,3.3,3.68c0,2.24-1.28,3.66-3.3,3.66C1382.6,1341.03,1381.34,1339.57,1381.34,1337.35Zm20.06-4.98h-1.64v7.08a3.7,3.7,0,0,1-2.94,1.58,2.506,2.506,0,0,1-2.56-2.8v-5.86h-1.62v6.26a3.688,3.688,0,0,0,3.92,3.9,4.115,4.115,0,0,0,3.22-1.48v1.3h1.62v-9.98Zm3.86,0v9.98h1.64v-6.96a3.239,3.239,0,0,1,2.88-1.6,4.676,4.676,0,0,1,1.26.18v-1.5a5.409,5.409,0,0,0-1.24-.16,3.317,3.317,0,0,0-2.92,1.56v-1.5h-1.62Zm23.12,0h-5.34c-3.28,0-4.4,2.1-4.4,3.78a3.324,3.324,0,0,0,1.9,3.04,1.515,1.515,0,0,0-1.4,1.48,1.585,1.585,0,0,0,1.48,1.48c-1.66.28-2.52,1.18-2.52,2.4,0,1.9,2.06,2.61,4.54,2.61,2.62,0,5-.81,5-2.97,0-2.1-2.24-2.58-3.92-2.64l-1.38-.06c-0.5-.02-1.72-0.1-1.72-0.9,0-.68.92-0.82,1.88-0.94,2.68-.34,4.2-1.52,4.2-3.56a2.522,2.522,0,0,0-1.18-2.26h2.86v-1.46Zm-8.72,12.02c0-1.28,1.52-1.52,3.16-1.52,2.26,0,3.24.46,3.24,1.42,0,1.22-1.52,1.6-3.36,1.6C1421.06,1345.89,1419.66,1345.61,1419.66,1344.39Zm0.54-8.3a2.489,2.489,0,1,1,2.48,2.28A2.285,2.285,0,0,1,1420.2,1336.09Zm11.36-5.68a1.159,1.159,0,0,0,1.26-1.14,1.146,1.146,0,0,0-1.26-1.18A1.161,1.161,0,1,0,1431.56,1330.41Zm-0.78,11.94h1.64v-9.98h-1.64v9.98Zm6.4-8.52v8.52h1.64v-8.52h3.28v-1.46h-3.28v-1.12a1.78,1.78,0,0,1,1.96-1.9,3.732,3.732,0,0,1,1.86.54v-1.52a4.968,4.968,0,0,0-2.12-.5,3.159,3.159,0,0,0-3.34,3.38v1.12h-2.24v1.46h2.24Zm14.92-1.46h-4.12v-3.28h-1.64v3.28h-2.46v1.46h2.46v5.12a3.393,3.393,0,0,0,3.56,3.58,4.582,4.582,0,0,0,2.44-.7v-1.5a4.042,4.042,0,0,1-2.18.72,2.061,2.061,0,0,1-2.18-2.3v-4.92h4.12v-1.46Zm13.2,1.32a4.806,4.806,0,0,1,2.84.96v-1.56a4.814,4.814,0,0,0-2.94-.9,4.952,4.952,0,0,0-5.1,5.2,5.135,5.135,0,0,0,8.04,4.24v-1.56a4.854,4.854,0,0,1-2.84.96,3.354,3.354,0,0,1-3.56-3.62A3.445,3.445,0,0,1,1465.3,1333.69Zm13.24,8.66v-6.94c0-2-1.34-3.22-3.7-3.22a5.509,5.509,0,0,0-3.62,1.22v1.62a5.216,5.216,0,0,1,3.5-1.38c1.4,0,2.2.58,2.2,1.5,0,0.86-.7,1.1-1.56,1.3l-1.38.34c-1.26.3-3.4,0.84-3.4,3.08,0,1.84,1.36,2.66,3,2.66a3.8,3.8,0,0,0,3.36-1.82v1.64h1.6Zm-6.32-2.56c0-1.26,1.1-1.58,2.12-1.84l0.94-.24a6.932,6.932,0,0,0,1.64-.56v1.08a2.925,2.925,0,0,1-3.04,2.94A1.39,1.39,0,0,1,1472.22,1339.79Zm10.06-7.42v9.98h1.64v-6.96a3.239,3.239,0,0,1,2.88-1.6,4.676,4.676,0,0,1,1.26.18v-1.5a5.409,5.409,0,0,0-1.24-.16,3.317,3.317,0,0,0-2.92,1.56v-1.5h-1.62Zm17.3-4.24h-1.64v5.4a4.161,4.161,0,0,0-3.22-1.34,4.835,4.835,0,0,0-4.9,5.14,4.886,4.886,0,0,0,4.9,5.2,4.029,4.029,0,0,0,3.24-1.5v1.32h1.62v-14.22Zm-8.12,9.2c0-2.12,1.24-3.66,3.42-3.66a3.638,3.638,0,0,1,3.06,1.52v4.32a3.71,3.71,0,0,1-3.08,1.54C1492.7,1341.05,1491.46,1339.45,1491.46,1337.33Zm30.12-4.96-2.74,7.76-2.46-7.76h-1.4l-2.44,7.76-2.74-7.76h-1.78l3.78,9.98h1.46l2.42-7.24,2.44,7.24h1.44l3.8-9.98h-1.78Zm5.1-1.96a1.159,1.159,0,0,0,1.26-1.14,1.146,1.146,0,0,0-1.26-1.18A1.161,1.161,0,1,0,1526.68,1330.41Zm-0.78,11.94h1.64v-9.98h-1.64v9.98Zm12.38-9.98h-4.12v-3.28h-1.64v3.28h-2.46v1.46h2.46v5.12a3.393,3.393,0,0,0,3.56,3.58,4.582,4.582,0,0,0,2.44-.7v-1.5a4.042,4.042,0,0,1-2.18.72,2.061,2.061,0,0,1-2.18-2.3v-4.92h4.12v-1.46Zm3-4.24v14.22h1.64v-7.04a3.839,3.839,0,0,1,3.04-1.62,2.479,2.479,0,0,1,2.56,2.72v5.94h1.64v-6.38a3.675,3.675,0,0,0-3.94-3.78,4.142,4.142,0,0,0-3.3,1.52v-5.58h-1.64Zm25.58,14.22v-6.94c0-2-1.34-3.22-3.7-3.22a5.509,5.509,0,0,0-3.62,1.22v1.62a5.216,5.216,0,0,1,3.5-1.38c1.4,0,2.2.58,2.2,1.5,0,0.86-.7,1.1-1.56,1.3l-1.38.34c-1.26.3-3.4,0.84-3.4,3.08,0,1.84,1.36,2.66,3,2.66a3.8,3.8,0,0,0,3.36-1.82v1.64h1.6Zm-6.32-2.56c0-1.26,1.1-1.58,2.12-1.84l0.94-.24a6.932,6.932,0,0,0,1.64-.56v1.08a2.925,2.925,0,0,1-3.04,2.94A1.39,1.39,0,0,1,1560.54,1339.79Zm20.7-7.6a4.2,4.2,0,0,0-3.32,1.44v-1.26h-1.62v13.82h1.64v-5.18a4.145,4.145,0,0,0,3.18,1.34,4.885,4.885,0,0,0,4.94-5.18A4.7,4.7,0,0,0,1581.24,1332.19Zm-3.3,7.12v-4.12a3.72,3.72,0,0,1,3.12-1.52,3.3,3.3,0,0,1,3.36,3.56,3.347,3.347,0,0,1-3.38,3.64A3.746,3.746,0,0,1,1577.94,1339.31Zm11.26-11.18v14.22h1.64v-7.04a3.839,3.839,0,0,1,3.04-1.62,2.479,2.479,0,0,1,2.56,2.72v5.94h1.64v-6.38a3.675,3.675,0,0,0-3.94-3.78,4.142,4.142,0,0,0-3.3,1.52v-5.58h-1.64Zm16.88,4.06a5.175,5.175,0,1,0,4.94,5.2A4.838,4.838,0,0,0,1606.08,1332.19Zm-3.32,5.16c0-2.24,1.28-3.66,3.32-3.66s3.3,1.46,3.3,3.68c0,2.24-1.28,3.66-3.3,3.66C1604.02,1341.03,1602.76,1339.57,1602.76,1337.35Zm18.32-4.98h-4.12v-3.28h-1.64v3.28h-2.46v1.46h2.46v5.12a3.393,3.393,0,0,0,3.56,3.58,4.582,4.582,0,0,0,2.44-.7v-1.5a4.042,4.042,0,0,1-2.18.72,2.061,2.061,0,0,1-2.18-2.3v-4.92h4.12v-1.46Zm7.26-.18a5.175,5.175,0,1,0,4.94,5.2A4.838,4.838,0,0,0,1628.34,1332.19Zm-3.32,5.16c0-2.24,1.28-3.66,3.32-3.66s3.3,1.46,3.3,3.68c0,2.24-1.28,3.66-3.3,3.66C1626.28,1341.03,1625.02,1339.57,1625.02,1337.35Zm11.9,2.8a1.151,1.151,0,1,0,1.2,1.14A1.088,1.088,0,0,0,1636.92,1340.15Z" transform="translate(-960 -590)"/>
  <path id="Rectangle_1_copy_3" data-name="Rectangle 1 copy 3" class="cls-2" d="M959.985,590H1919.99v965h-960V590Z" transform="translate(-960 -590)"/>
</svg>
