<svg width="1920" height="1197" viewBox="0 0 1920 1197" fill="none" xmlns="http://www.w3.org/2000/svg">
<path d="M542.473 179V178.7L543.733 178.16C544.293 177.92 544.673 177.64 544.873 177.32C545.073 177 545.173 176.56 545.173 176V159.8L533.952 141.08C532.992 139.56 531.872 138.44 530.592 137.72L529.812 137.3V137H542.653V137.3L541.213 137.72C540.813 137.84 540.493 138.06 540.253 138.38C540.013 138.66 539.893 139 539.893 139.4C539.893 139.92 540.053 140.44 540.373 140.96L549.853 157.04L558.972 140.48C559.252 140.04 559.393 139.6 559.393 139.16C559.393 138.8 559.293 138.5 559.093 138.26C558.893 137.98 558.633 137.8 558.313 137.72L556.873 137.3V137H565.573V137.3L564.253 137.72C563.093 138.08 561.993 139.24 560.953 141.2L550.933 159.44V176C550.933 176.56 551.033 177 551.233 177.32C551.433 177.64 551.813 177.92 552.373 178.16L553.632 178.7V179H542.473Z" fill="white"/>
<path d="M584.153 180.08C580.113 180.08 576.373 179.1 572.933 177.14C569.493 175.18 566.753 172.52 564.713 169.16C562.713 165.76 561.713 162.04 561.713 158C561.713 154 562.713 150.32 564.713 146.96C566.753 143.56 569.493 140.88 572.933 138.92C576.373 136.92 580.113 135.92 584.153 135.92C588.193 135.92 591.933 136.92 595.373 138.92C598.813 140.88 601.533 143.56 603.533 146.96C605.573 150.32 606.593 154 606.593 158C606.593 162.04 605.573 165.76 603.533 169.16C601.533 172.52 598.813 175.18 595.373 177.14C591.933 179.1 588.193 180.08 584.153 180.08ZM584.753 178.28C587.673 178.28 590.273 177.4 592.553 175.64C594.873 173.84 596.653 171.46 597.893 168.5C599.173 165.54 599.813 162.32 599.813 158.84C599.813 155.04 599.113 151.52 597.713 148.28C596.313 145.04 594.373 142.48 591.893 140.6C589.413 138.68 586.633 137.72 583.553 137.72C580.633 137.72 578.013 138.62 575.693 140.42C573.413 142.18 571.633 144.54 570.353 147.5C569.113 150.46 568.493 153.68 568.493 157.16C568.493 161 569.193 164.54 570.593 167.78C571.993 170.98 573.933 173.54 576.413 175.46C578.893 177.34 581.673 178.28 584.753 178.28Z" fill="white"/>
<path d="M627.292 180.08C622.572 180.08 618.812 178.98 616.012 176.78C613.212 174.54 611.812 171.38 611.812 167.3V139.94C611.812 139.38 611.712 138.96 611.512 138.68C611.312 138.36 610.932 138.08 610.372 137.84L609.112 137.3V137H620.272V137.3L619.012 137.84C618.452 138.08 618.072 138.36 617.872 138.68C617.672 138.96 617.572 139.38 617.572 139.94V167.9C617.572 171.02 618.512 173.44 620.392 175.16C622.312 176.84 625.112 177.68 628.792 177.68C631.912 177.68 634.472 176.78 636.472 174.98C638.512 173.14 639.532 170.62 639.532 167.42V139.94C639.532 139.38 639.432 138.96 639.232 138.68C639.032 138.36 638.652 138.08 638.092 137.84L636.832 137.3V137H644.332V137.3L643.072 137.84C642.512 138.08 642.132 138.36 641.932 138.68C641.732 138.96 641.632 139.38 641.632 139.94V166.94C641.632 171.06 640.372 174.28 637.852 176.6C635.332 178.92 631.812 180.08 627.292 180.08Z" fill="white"/>
<path d="M646.73 179V178.7L647.99 178.16C648.55 177.88 648.93 177.58 649.13 177.26C649.33 176.94 649.43 176.52 649.43 176V140C649.43 139.48 649.33 139.06 649.13 138.74C648.93 138.42 648.55 138.12 647.99 137.84L646.73 137.3V137H660.29C664.57 137 667.99 137.94 670.55 139.82C673.11 141.7 674.39 144.24 674.39 147.44C674.39 149.96 673.51 152.16 671.75 154.04C670.03 155.92 667.61 157.22 664.49 157.94C665.53 158.22 666.37 158.58 667.01 159.02C667.69 159.42 668.41 160.1 669.17 161.06C669.97 162.02 671.01 163.48 672.29 165.44L678.77 175.28C679.37 176.16 679.97 176.84 680.57 177.32C681.21 177.8 682.07 178.26 683.15 178.7V179H677.21C676.13 179 675.25 178.78 674.57 178.34C673.93 177.9 673.29 177.14 672.65 176.06L664.73 162.92C663.73 161.28 662.85 160.2 662.09 159.68C661.37 159.12 660.27 158.84 658.79 158.84H655.19V176C655.19 176.52 655.29 176.94 655.49 177.26C655.69 177.58 656.07 177.88 656.63 178.16L657.89 178.7V179H646.73ZM660.83 157.04C663.31 157.04 665.27 156 666.71 153.92C667.31 153.04 667.77 152.1 668.09 151.1C668.45 150.06 668.63 148.84 668.63 147.44C668.63 144.88 667.81 142.8 666.17 141.2C664.53 139.6 662.25 138.8 659.33 138.8C658.49 138.8 657.69 138.88 656.93 139.04C656.17 139.2 655.59 139.4 655.19 139.64V157.04H660.83Z" fill="white"/>
<path d="M721.086 180.08C716.806 180.08 712.946 179.1 709.506 177.14C706.106 175.18 703.446 172.52 701.526 169.16C699.606 165.8 698.646 162.08 698.646 158C698.646 154 699.646 150.32 701.646 146.96C703.686 143.56 706.426 140.88 709.866 138.92C713.306 136.92 717.046 135.92 721.086 135.92C724.286 135.92 727.246 136.3 729.966 137.06C732.686 137.82 735.066 138.88 737.106 140.24V149.84H736.806C735.606 145.88 733.726 142.88 731.166 140.84C728.646 138.76 725.486 137.72 721.686 137.72C718.366 137.72 715.466 138.6 712.986 140.36C710.546 142.12 708.666 144.48 707.346 147.44C706.066 150.4 705.426 153.64 705.426 157.16C705.426 160.92 706.046 164.42 707.286 167.66C708.526 170.86 710.346 173.44 712.746 175.4C715.146 177.32 718.046 178.28 721.446 178.28C725.646 178.28 728.966 177.28 731.406 175.28C733.886 173.24 735.686 170.34 736.806 166.58H737.106V174.98C733.146 178.38 727.806 180.08 721.086 180.08Z" fill="white"/>
<path d="M757.781 180.08C753.061 180.08 749.301 178.98 746.501 176.78C743.701 174.54 742.301 171.38 742.301 167.3V139.94C742.301 139.38 742.201 138.96 742.001 138.68C741.801 138.36 741.421 138.08 740.861 137.84L739.601 137.3V137H750.761V137.3L749.501 137.84C748.941 138.08 748.561 138.36 748.361 138.68C748.161 138.96 748.061 139.38 748.061 139.94V167.9C748.061 171.02 749.001 173.44 750.881 175.16C752.801 176.84 755.601 177.68 759.281 177.68C762.401 177.68 764.961 176.78 766.961 174.98C769.001 173.14 770.021 170.62 770.021 167.42V139.94C770.021 139.38 769.921 138.96 769.721 138.68C769.521 138.36 769.141 138.08 768.581 137.84L767.321 137.3V137H774.821V137.3L773.561 137.84C773.001 138.08 772.621 138.36 772.421 138.68C772.221 138.96 772.121 139.38 772.121 139.94V166.94C772.121 171.06 770.861 174.28 768.341 176.6C765.821 178.92 762.301 180.08 757.781 180.08Z" fill="white"/>
<path d="M777.218 179V178.7L778.478 178.16C779.038 177.88 779.418 177.58 779.618 177.26C779.818 176.94 779.918 176.52 779.918 176V140C779.918 139.48 779.818 139.06 779.618 138.74C779.418 138.42 779.038 138.12 778.478 137.84L777.218 137.3V137H790.778C795.058 137 798.478 137.94 801.038 139.82C803.598 141.7 804.878 144.24 804.878 147.44C804.878 149.96 803.998 152.16 802.238 154.04C800.518 155.92 798.098 157.22 794.978 157.94C796.018 158.22 796.858 158.58 797.498 159.02C798.178 159.42 798.898 160.1 799.658 161.06C800.458 162.02 801.498 163.48 802.778 165.44L809.258 175.28C809.858 176.16 810.458 176.84 811.058 177.32C811.698 177.8 812.558 178.26 813.638 178.7V179H807.698C806.618 179 805.738 178.78 805.058 178.34C804.418 177.9 803.778 177.14 803.138 176.06L795.218 162.92C794.218 161.28 793.338 160.2 792.578 159.68C791.858 159.12 790.758 158.84 789.278 158.84H785.678V176C785.678 176.52 785.778 176.94 785.978 177.26C786.178 177.58 786.558 177.88 787.118 178.16L788.378 178.7V179H777.218ZM791.318 157.04C793.798 157.04 795.758 156 797.198 153.92C797.798 153.04 798.258 152.1 798.578 151.1C798.938 150.06 799.118 148.84 799.118 147.44C799.118 144.88 798.298 142.8 796.658 141.2C795.018 139.6 792.738 138.8 789.818 138.8C788.978 138.8 788.178 138.88 787.418 139.04C786.658 139.2 786.078 139.4 785.678 139.64V157.04H791.318Z" fill="white"/>
<path d="M853.781 178.7V179H842.741V178.7L843.881 178.22C844.441 177.94 844.721 177.52 844.721 176.96C844.721 176.64 844.661 176.34 844.541 176.06L840.461 166.04H823.301L819.221 176.06C819.101 176.34 819.041 176.66 819.041 177.02C819.041 177.58 819.321 177.98 819.881 178.22L821.081 178.7V179H813.701V178.7L814.781 178.16C815.981 177.56 816.821 176.66 817.301 175.46L833.441 136.16H833.741L850.061 175.52C850.541 176.72 851.381 177.6 852.581 178.16L853.781 178.7ZM831.821 145.1L824.021 164.24H839.681L831.821 145.1Z" fill="white"/>
<path d="M857.326 179V178.7L858.586 178.16C859.146 177.92 859.526 177.64 859.726 177.32C859.926 177 860.026 176.56 860.026 176V138.8H850.666C849.786 138.8 849.066 139.02 848.506 139.46C847.986 139.9 847.566 140.58 847.246 141.5L846.586 143.48H846.286V137H879.526V143.48H879.226L878.566 141.5C878.246 140.58 877.806 139.9 877.246 139.46C876.726 139.02 876.026 138.8 875.146 138.8H865.786V176C865.786 176.56 865.886 177 866.086 177.32C866.286 177.64 866.666 177.92 867.226 178.16L868.486 178.7V179H857.326Z" fill="white"/>
<path d="M881.339 179V178.7L882.599 178.16C883.159 177.92 883.539 177.64 883.739 177.32C883.939 177 884.039 176.56 884.039 176V140C884.039 139.44 883.939 139 883.739 138.68C883.539 138.36 883.159 138.08 882.599 137.84L881.339 137.3V137H905.879V142.88H905.579L904.799 140.9C904.479 140.1 904.039 139.56 903.479 139.28C902.959 138.96 902.219 138.8 901.259 138.8H889.799V155.3H898.679C899.479 155.3 900.119 155.18 900.599 154.94C901.119 154.66 901.519 154.2 901.799 153.56L902.579 151.88H902.879V160.52H902.579L901.799 158.84C901.519 158.2 901.119 157.76 900.599 157.52C900.119 157.24 899.479 157.1 898.679 157.1H889.799V177.2H902.879C904.839 177.2 906.199 176.5 906.959 175.1L908.279 172.7H908.579L907.679 179H881.339Z" fill="white"/>
<path d="M910.753 179V178.7L912.013 178.16C912.573 177.92 912.953 177.64 913.153 177.32C913.353 177 913.453 176.56 913.453 176V140C913.453 139.44 913.353 139 913.153 138.68C912.953 138.36 912.573 138.08 912.013 137.84L910.753 137.3V137H926.653C931.293 137 935.413 137.9 939.013 139.7C942.653 141.5 945.473 144 947.473 147.2C949.513 150.36 950.533 153.96 950.533 158C950.533 162.04 949.513 165.66 947.473 168.86C945.473 172.02 942.653 174.5 939.013 176.3C935.413 178.1 931.293 179 926.653 179H910.753ZM926.653 177.2C932.253 177.2 936.493 175.5 939.373 172.1C942.253 168.66 943.693 163.96 943.693 158C943.693 152.04 942.253 147.36 939.373 143.96C936.493 140.52 932.253 138.8 926.653 138.8H919.213V177.2H926.653Z" fill="white"/>
<path d="M979.472 180.08C977.232 180.08 975.072 179.7 972.992 178.94C970.912 178.14 969.232 177.18 967.952 176.06V166.88H968.252C968.972 169.56 969.792 171.72 970.712 173.36C971.632 174.96 972.832 176.18 974.312 177.02C975.792 177.86 977.692 178.28 980.012 178.28C982.412 178.28 984.352 177.44 985.832 175.76C987.312 174.08 988.052 171.86 988.052 169.1C988.052 166.98 987.292 165.14 985.772 163.58C984.292 162.02 981.812 160.4 978.332 158.72C975.172 157.2 972.732 155.4 971.012 153.32C969.292 151.24 968.432 148.8 968.432 146C968.432 144.2 968.932 142.54 969.932 141.02C970.972 139.46 972.392 138.22 974.192 137.3C976.032 136.38 978.092 135.92 980.372 135.92C984.292 135.92 987.592 136.62 990.272 138.02V145.4H989.972C988.972 142.6 987.652 140.62 986.012 139.46C984.372 138.26 982.452 137.66 980.252 137.66C978.052 137.66 976.352 138.28 975.152 139.52C973.952 140.76 973.352 142.38 973.352 144.38C973.352 146.54 974.072 148.38 975.512 149.9C976.992 151.42 979.312 152.9 982.472 154.34C985.792 155.86 988.392 157.6 990.272 159.56C992.192 161.52 993.152 164.04 993.152 167.12C993.152 169.8 992.472 172.12 991.112 174.08C989.792 176.04 988.072 177.54 985.952 178.58C983.872 179.58 981.712 180.08 979.472 180.08Z" fill="white"/>
<path d="M1014.13 180.08C1009.41 180.08 1005.65 178.98 1002.85 176.78C1000.05 174.54 998.648 171.38 998.648 167.3V139.94C998.648 139.38 998.548 138.96 998.348 138.68C998.148 138.36 997.768 138.08 997.208 137.84L995.948 137.3V137H1007.11V137.3L1005.85 137.84C1005.29 138.08 1004.91 138.36 1004.71 138.68C1004.51 138.96 1004.41 139.38 1004.41 139.94V167.9C1004.41 171.02 1005.35 173.44 1007.23 175.16C1009.15 176.84 1011.95 177.68 1015.63 177.68C1018.75 177.68 1021.31 176.78 1023.31 174.98C1025.35 173.14 1026.37 170.62 1026.37 167.42V139.94C1026.37 139.38 1026.27 138.96 1026.07 138.68C1025.87 138.36 1025.49 138.08 1024.93 137.84L1023.67 137.3V137H1031.17V137.3L1029.91 137.84C1029.35 138.08 1028.97 138.36 1028.77 138.68C1028.57 138.96 1028.47 139.38 1028.47 139.94V166.94C1028.47 171.06 1027.21 174.28 1024.69 176.6C1022.17 178.92 1018.65 180.08 1014.13 180.08Z" fill="white"/>
<path d="M1054.39 179.72L1038.37 142.4V176C1038.37 176.56 1038.47 177 1038.67 177.32C1038.87 177.64 1039.25 177.92 1039.81 178.16L1041.07 178.7V179H1033.57V178.7L1034.83 178.16C1035.39 177.92 1035.77 177.64 1035.97 177.32C1036.17 177 1036.27 176.56 1036.27 176V140C1036.27 139.44 1036.17 139 1035.97 138.68C1035.77 138.36 1035.39 138.08 1034.83 137.84L1033.57 137.3V137H1041.67L1055.95 170.84L1069.69 137H1078.15V137.3L1076.89 137.84C1076.33 138.08 1075.95 138.36 1075.75 138.68C1075.55 139 1075.45 139.44 1075.45 140V176C1075.45 176.56 1075.55 177 1075.75 177.32C1075.95 177.64 1076.33 177.92 1076.89 178.16L1078.15 178.7V179H1066.99V178.7L1068.25 178.16C1068.81 177.92 1069.19 177.64 1069.39 177.32C1069.59 177 1069.69 176.56 1069.69 176V142.4L1054.69 179.72H1054.39Z" fill="white"/>
<path d="M1101.38 179.72L1085.36 142.4V176C1085.36 176.56 1085.46 177 1085.66 177.32C1085.86 177.64 1086.24 177.92 1086.8 178.16L1088.06 178.7V179H1080.56V178.7L1081.82 178.16C1082.38 177.92 1082.76 177.64 1082.96 177.32C1083.16 177 1083.26 176.56 1083.26 176V140C1083.26 139.44 1083.16 139 1082.96 138.68C1082.76 138.36 1082.38 138.08 1081.82 137.84L1080.56 137.3V137H1088.66L1102.94 170.84L1116.68 137H1125.14V137.3L1123.88 137.84C1123.32 138.08 1122.94 138.36 1122.74 138.68C1122.54 139 1122.44 139.44 1122.44 140V176C1122.44 176.56 1122.54 177 1122.74 177.32C1122.94 177.64 1123.32 177.92 1123.88 178.16L1125.14 178.7V179H1113.98V178.7L1115.24 178.16C1115.8 177.92 1116.18 177.64 1116.38 177.32C1116.58 177 1116.68 176.56 1116.68 176V142.4L1101.68 179.72H1101.38Z" fill="white"/>
<path d="M1127.55 179V178.7L1128.81 178.16C1129.37 177.92 1129.75 177.64 1129.95 177.32C1130.15 177 1130.25 176.56 1130.25 176V140C1130.25 139.44 1130.15 139 1129.95 138.68C1129.75 138.36 1129.37 138.08 1128.81 137.84L1127.55 137.3V137H1152.09V142.88H1151.79L1151.01 140.9C1150.69 140.1 1150.25 139.56 1149.69 139.28C1149.17 138.96 1148.43 138.8 1147.47 138.8H1136.01V155.3H1144.89C1145.69 155.3 1146.33 155.18 1146.81 154.94C1147.33 154.66 1147.73 154.2 1148.01 153.56L1148.79 151.88H1149.09V160.52H1148.79L1148.01 158.84C1147.73 158.2 1147.33 157.76 1146.81 157.52C1146.33 157.24 1145.69 157.1 1144.89 157.1H1136.01V177.2H1149.09C1151.05 177.2 1152.41 176.5 1153.17 175.1L1154.49 172.7H1154.79L1153.89 179H1127.55Z" fill="white"/>
<path d="M1156.96 179V178.7L1158.22 178.16C1158.78 177.88 1159.16 177.58 1159.36 177.26C1159.56 176.94 1159.66 176.52 1159.66 176V140C1159.66 139.48 1159.56 139.06 1159.36 138.74C1159.16 138.42 1158.78 138.12 1158.22 137.84L1156.96 137.3V137H1170.52C1174.8 137 1178.22 137.94 1180.78 139.82C1183.34 141.7 1184.62 144.24 1184.62 147.44C1184.62 149.96 1183.74 152.16 1181.98 154.04C1180.26 155.92 1177.84 157.22 1174.72 157.94C1175.76 158.22 1176.6 158.58 1177.24 159.02C1177.92 159.42 1178.64 160.1 1179.4 161.06C1180.2 162.02 1181.24 163.48 1182.52 165.44L1189 175.28C1189.6 176.16 1190.2 176.84 1190.8 177.32C1191.44 177.8 1192.3 178.26 1193.38 178.7V179H1187.44C1186.36 179 1185.48 178.78 1184.8 178.34C1184.16 177.9 1183.52 177.14 1182.88 176.06L1174.96 162.92C1173.96 161.28 1173.08 160.2 1172.32 159.68C1171.6 159.12 1170.5 158.84 1169.02 158.84H1165.42V176C1165.42 176.52 1165.52 176.94 1165.72 177.26C1165.92 177.58 1166.3 177.88 1166.86 178.16L1168.12 178.7V179H1156.96ZM1171.06 157.04C1173.54 157.04 1175.5 156 1176.94 153.92C1177.54 153.04 1178 152.1 1178.32 151.1C1178.68 150.06 1178.86 148.84 1178.86 147.44C1178.86 144.88 1178.04 142.8 1176.4 141.2C1174.76 139.6 1172.48 138.8 1169.56 138.8C1168.72 138.8 1167.92 138.88 1167.16 139.04C1166.4 139.2 1165.82 139.4 1165.42 139.64V157.04H1171.06Z" fill="white"/>
<path d="M1220.76 180.08C1218.52 180.08 1216.36 179.7 1214.28 178.94C1212.2 178.14 1210.52 177.18 1209.24 176.06V166.88H1209.54C1210.26 169.56 1211.08 171.72 1212 173.36C1212.92 174.96 1214.12 176.18 1215.6 177.02C1217.08 177.86 1218.98 178.28 1221.3 178.28C1223.7 178.28 1225.64 177.44 1227.12 175.76C1228.6 174.08 1229.34 171.86 1229.34 169.1C1229.34 166.98 1228.58 165.14 1227.06 163.58C1225.58 162.02 1223.1 160.4 1219.62 158.72C1216.46 157.2 1214.02 155.4 1212.3 153.32C1210.58 151.24 1209.72 148.8 1209.72 146C1209.72 144.2 1210.22 142.54 1211.22 141.02C1212.26 139.46 1213.68 138.22 1215.48 137.3C1217.32 136.38 1219.38 135.92 1221.66 135.92C1225.58 135.92 1228.88 136.62 1231.56 138.02V145.4H1231.26C1230.26 142.6 1228.94 140.62 1227.3 139.46C1225.66 138.26 1223.74 137.66 1221.54 137.66C1219.34 137.66 1217.64 138.28 1216.44 139.52C1215.24 140.76 1214.64 142.38 1214.64 144.38C1214.64 146.54 1215.36 148.38 1216.8 149.9C1218.28 151.42 1220.6 152.9 1223.76 154.34C1227.08 155.86 1229.68 157.6 1231.56 159.56C1233.48 161.52 1234.44 164.04 1234.44 167.12C1234.44 169.8 1233.76 172.12 1232.4 174.08C1231.08 176.04 1229.36 177.54 1227.24 178.58C1225.16 179.58 1223 180.08 1220.76 180.08Z" fill="white"/>
<path d="M1245.86 179V178.7L1247.12 178.16C1247.68 177.92 1248.06 177.64 1248.26 177.32C1248.46 177 1248.56 176.56 1248.56 176V138.8H1239.2C1238.32 138.8 1237.6 139.02 1237.04 139.46C1236.52 139.9 1236.1 140.58 1235.78 141.5L1235.12 143.48H1234.82V137H1268.06V143.48H1267.76L1267.1 141.5C1266.78 140.58 1266.34 139.9 1265.78 139.46C1265.26 139.02 1264.56 138.8 1263.68 138.8H1254.32V176C1254.32 176.56 1254.42 177 1254.62 177.32C1254.82 177.64 1255.2 177.92 1255.76 178.16L1257.02 178.7V179H1245.86Z" fill="white"/>
<path d="M1281.57 179V178.7L1282.83 178.16C1283.39 177.92 1283.77 177.64 1283.97 177.32C1284.17 177 1284.27 176.56 1284.27 176V159.8L1273.05 141.08C1272.09 139.56 1270.97 138.44 1269.69 137.72L1268.91 137.3V137H1281.75V137.3L1280.31 137.72C1279.91 137.84 1279.59 138.06 1279.35 138.38C1279.11 138.66 1278.99 139 1278.99 139.4C1278.99 139.92 1279.15 140.44 1279.47 140.96L1288.95 157.04L1298.07 140.48C1298.35 140.04 1298.49 139.6 1298.49 139.16C1298.49 138.8 1298.39 138.5 1298.19 138.26C1297.99 137.98 1297.73 137.8 1297.41 137.72L1295.97 137.3V137H1304.67V137.3L1303.35 137.72C1302.19 138.08 1301.09 139.24 1300.05 141.2L1290.03 159.44V176C1290.03 176.56 1290.13 177 1290.33 177.32C1290.53 177.64 1290.91 177.92 1291.47 178.16L1292.73 178.7V179H1281.57Z" fill="white"/>
<path d="M1306.09 179V178.7L1307.35 178.16C1307.91 177.88 1308.28 177.58 1308.48 177.26C1308.68 176.94 1308.79 176.52 1308.79 176V140C1308.79 139.48 1308.68 139.06 1308.48 138.74C1308.28 138.42 1307.91 138.12 1307.35 137.84L1306.09 137.3V137H1317.24V137.3L1315.98 137.84C1315.42 138.12 1315.05 138.42 1314.85 138.74C1314.65 139.06 1314.54 139.48 1314.54 140V177.2H1327.09C1328.05 177.2 1328.8 177.06 1329.36 176.78C1329.96 176.46 1330.5 175.9 1330.98 175.1L1332.18 172.76H1332.48L1331.59 179H1306.09Z" fill="white"/>
<path d="M1334.74 179V178.7L1336 178.16C1336.56 177.92 1336.94 177.64 1337.14 177.32C1337.34 177 1337.44 176.56 1337.44 176V140C1337.44 139.44 1337.34 139 1337.14 138.68C1336.94 138.36 1336.56 138.08 1336 137.84L1334.74 137.3V137H1359.28V142.88H1358.98L1358.2 140.9C1357.88 140.1 1357.44 139.56 1356.88 139.28C1356.36 138.96 1355.62 138.8 1354.66 138.8H1343.2V155.3H1352.08C1352.88 155.3 1353.52 155.18 1354 154.94C1354.52 154.66 1354.92 154.2 1355.2 153.56L1355.98 151.88H1356.28V160.52H1355.98L1355.2 158.84C1354.92 158.2 1354.52 157.76 1354 157.52C1353.52 157.24 1352.88 157.1 1352.08 157.1H1343.2V177.2H1356.28C1358.24 177.2 1359.6 176.5 1360.36 175.1L1361.68 172.7H1361.98L1361.08 179H1334.74Z" fill="white"/>
<path d="M1376.15 180.08C1373.91 180.08 1371.75 179.7 1369.67 178.94C1367.59 178.14 1365.91 177.18 1364.63 176.06V166.88H1364.93C1365.65 169.56 1366.47 171.72 1367.39 173.36C1368.31 174.96 1369.51 176.18 1370.99 177.02C1372.47 177.86 1374.37 178.28 1376.69 178.28C1379.09 178.28 1381.03 177.44 1382.51 175.76C1383.99 174.08 1384.73 171.86 1384.73 169.1C1384.73 166.98 1383.97 165.14 1382.45 163.58C1380.97 162.02 1378.49 160.4 1375.01 158.72C1371.85 157.2 1369.41 155.4 1367.69 153.32C1365.97 151.24 1365.11 148.8 1365.11 146C1365.11 144.2 1365.61 142.54 1366.61 141.02C1367.65 139.46 1369.07 138.22 1370.87 137.3C1372.71 136.38 1374.77 135.92 1377.05 135.92C1380.97 135.92 1384.27 136.62 1386.95 138.02V145.4H1386.65C1385.65 142.6 1384.33 140.62 1382.69 139.46C1381.05 138.26 1379.13 137.66 1376.93 137.66C1374.73 137.66 1373.03 138.28 1371.83 139.52C1370.63 140.76 1370.03 142.38 1370.03 144.38C1370.03 146.54 1370.75 148.38 1372.19 149.9C1373.67 151.42 1375.99 152.9 1379.15 154.34C1382.47 155.86 1385.07 157.6 1386.95 159.56C1388.87 161.52 1389.83 164.04 1389.83 167.12C1389.83 169.8 1389.15 172.12 1387.79 174.08C1386.47 176.04 1384.75 177.54 1382.63 178.58C1380.55 179.58 1378.39 180.08 1376.15 180.08Z" fill="white"/>
</svg>
