<svg xmlns="http://www.w3.org/2000/svg" width="1339" height="881" viewBox="0 0 1339 881">
  <defs>
    <style>
      .cls-1 {
        fill: #dcbf87;
        fill-rule: evenodd;
      }
    </style>
  </defs>
  <rect width="1339" height="881" rx="67" ry="67"/>
  <path class="cls-1" d="M817.964,520.583l-33.3-51.013c-19.577-29.748-23.907-34.93-40.524-39.381,32.934-7.438,51.072-26.755,51.072-53.647,0-33.157-28.9-53.706-73.018-53.706H689.182V323c7.487,1.807,13.655,5.374,20.363,9.874a30.4,30.4,0,0,1,7.685-.743c31.281,0,48.158,18.752,48.158,44.472,0,29.366-17.583,48.933-40.395,48.933h-9.784v0.219c21.982,9.031,27.761,21.881,35.025,34.734l34.527,62.541c6.526,10.846,13.24,16.7,24.736,16.7h31.086v-1.549C829.4,533.845,824.181,529.88,817.964,520.583ZM583.247,539.752V538.2l6.526-2.789c5.9-3.1,7.456-5.888,7.456-11.155V338.33c0-5.269-1.553-8.057-7.456-11.157l-6.526-2.788v-1.549h70.224c42.568,0,70.534,20.764,70.534,51.441,0,22.886-18.643,39.045-46.3,45.862,40.086,5.578,66.5,25.393,66.5,58.877,0,31.774-24.234,60.737-89.178,60.737H583.247Zm43.812-121.163h22.994c28.9,0,44.123-19.832,44.123-45.243,0-24.171-16.158-41.214-45.676-41.214-9.012,0-17.712,2.169-21.441,4.34v82.117ZM712.508,478.4c0-24.171-14.6-50.509-57.8-50.509H627.059v97.923a93.186,93.186,0,0,0,30.76,4.646C699.768,530.455,712.508,501.017,712.508,478.4Z"/>
</svg>
