<svg width="1920" height="700" viewBox="0 0 1920 700" fill="none" xmlns="http://www.w3.org/2000/svg">
<path d="M711.049 574.152C708.659 574.152 706.355 573.747 704.137 572.936C701.918 572.083 700.126 571.059 698.761 569.864V560.072H699.081C699.849 562.931 700.723 565.235 701.705 566.984C702.686 568.691 703.966 569.992 705.545 570.888C707.123 571.784 709.15 572.232 711.625 572.232C714.185 572.232 716.254 571.336 717.833 569.544C719.411 567.752 720.201 565.384 720.201 562.44C720.201 560.179 719.39 558.216 717.769 556.552C716.19 554.888 713.545 553.16 709.833 551.368C706.462 549.747 703.859 547.827 702.025 545.608C700.19 543.389 699.273 540.787 699.273 537.8C699.273 535.88 699.806 534.109 700.873 532.488C701.982 530.824 703.497 529.501 705.417 528.52C707.379 527.539 709.577 527.048 712.009 527.048C716.19 527.048 719.71 527.795 722.569 529.288V537.16H722.249C721.182 534.173 719.774 532.061 718.025 530.824C716.275 529.544 714.227 528.904 711.881 528.904C709.534 528.904 707.721 529.565 706.441 530.888C705.161 532.211 704.521 533.939 704.521 536.072C704.521 538.376 705.289 540.339 706.825 541.96C708.403 543.581 710.878 545.16 714.249 546.696C717.79 548.317 720.563 550.173 722.569 552.264C724.617 554.355 725.641 557.043 725.641 560.328C725.641 563.187 724.915 565.661 723.465 567.752C722.057 569.843 720.222 571.443 717.961 572.552C715.742 573.619 713.438 574.152 711.049 574.152Z" fill="white"/>
<path d="M727.874 573V572.68L729.218 572.104C729.815 571.848 730.22 571.549 730.434 571.208C730.647 570.867 730.754 570.397 730.754 569.8V531.4C730.754 530.803 730.647 530.333 730.434 529.992C730.22 529.651 729.815 529.352 729.218 529.096L727.874 528.52V528.2H739.778V528.52L738.434 529.096C737.836 529.352 737.431 529.651 737.218 529.992C737.004 530.333 736.898 530.803 736.898 531.4V547.016H759.81V531.4C759.81 530.803 759.703 530.333 759.49 529.992C759.276 529.651 758.871 529.352 758.274 529.096L756.93 528.52V528.2H768.834V528.52L767.618 528.968C766.508 529.352 765.954 530.163 765.954 531.4V569.8C765.954 570.397 766.06 570.867 766.274 571.208C766.487 571.549 766.892 571.848 767.49 572.104L768.834 572.68V573H756.93V572.68L758.274 572.104C758.871 571.848 759.276 571.549 759.49 571.208C759.703 570.867 759.81 570.397 759.81 569.8V548.936H736.898V569.8C736.898 570.397 737.004 570.867 737.218 571.208C737.431 571.549 737.836 571.848 738.434 572.104L739.778 572.68V573H727.874Z" fill="white"/>
<path d="M795.438 574.152C791.128 574.152 787.139 573.107 783.47 571.016C779.8 568.925 776.878 566.088 774.702 562.504C772.568 558.877 771.502 554.909 771.502 550.6C771.502 546.333 772.568 542.408 774.702 538.824C776.878 535.197 779.8 532.339 783.47 530.248C787.139 528.115 791.128 527.048 795.438 527.048C799.747 527.048 803.736 528.115 807.406 530.248C811.075 532.339 813.976 535.197 816.11 538.824C818.286 542.408 819.374 546.333 819.374 550.6C819.374 554.909 818.286 558.877 816.11 562.504C813.976 566.088 811.075 568.925 807.406 571.016C803.736 573.107 799.747 574.152 795.438 574.152ZM796.078 572.232C799.192 572.232 801.966 571.293 804.398 569.416C806.872 567.496 808.771 564.957 810.094 561.8C811.459 558.643 812.142 555.208 812.142 551.496C812.142 547.443 811.395 543.688 809.902 540.232C808.408 536.776 806.339 534.045 803.694 532.04C801.048 529.992 798.083 528.968 794.798 528.968C791.683 528.968 788.888 529.928 786.414 531.848C783.982 533.725 782.083 536.243 780.718 539.4C779.395 542.557 778.734 545.992 778.734 549.704C778.734 553.8 779.48 557.576 780.974 561.032C782.467 564.445 784.536 567.176 787.182 569.224C789.827 571.229 792.792 572.232 796.078 572.232Z" fill="white"/>
<path d="M822.061 573V572.68L823.405 572.104C824.003 571.848 824.408 571.549 824.621 571.208C824.835 570.867 824.941 570.397 824.941 569.8V531.4C824.941 530.803 824.835 530.333 824.621 529.992C824.408 529.651 824.003 529.352 823.405 529.096L822.061 528.52V528.2H836.525C839.597 528.2 842.328 528.691 844.717 529.672C847.107 530.611 848.963 531.933 850.285 533.64C851.608 535.347 852.269 537.288 852.269 539.464C852.269 543.048 851.075 546.013 848.685 548.36C846.296 550.707 842.755 551.88 838.061 551.88C835.117 551.88 832.792 551.667 831.085 551.24V569.8C831.085 570.397 831.192 570.867 831.405 571.208C831.619 571.549 832.024 571.848 832.621 572.104L833.965 572.68V573H822.061ZM837.101 549.96C839.917 549.96 842.115 549.021 843.693 547.144C845.315 545.224 846.125 542.792 846.125 539.848C846.125 536.904 845.187 534.557 843.309 532.808C841.475 531.016 838.872 530.12 835.501 530.12C834.605 530.12 833.752 530.205 832.941 530.376C832.131 530.547 831.512 530.76 831.085 531.016V549.064C833.133 549.661 835.139 549.96 837.101 549.96Z" fill="white"/>
<path d="M877.796 573.896C876.047 573.896 874.618 573.299 873.508 572.104C872.442 570.867 871.908 569.267 871.908 567.304C871.908 566.408 872.036 565.448 872.292 564.424L876.9 545.736H872.868L872.932 545.416L884.324 537.224H884.644L882.98 543.944H890.148L889.7 545.736H882.532L877.604 565.64C877.476 566.195 877.412 566.728 877.412 567.24C877.412 568.264 877.69 569.096 878.244 569.736C878.842 570.376 879.588 570.696 880.484 570.696C881.252 570.696 881.935 570.504 882.532 570.12C883.13 569.693 883.748 569.032 884.388 568.136L884.836 568.392C883.898 570.355 882.916 571.763 881.892 572.616C880.911 573.469 879.546 573.896 877.796 573.896Z" fill="white"/>
<path d="M912.738 569.096C912.61 569.608 912.546 570.056 912.546 570.44C912.546 571.293 912.994 571.912 913.89 572.296L914.85 572.68L914.786 573H909.09C908.45 573 907.917 572.787 907.49 572.36C907.064 571.933 906.85 571.421 906.85 570.824C906.85 570.525 906.872 570.312 906.914 570.184L911.33 552.328C911.501 551.475 911.586 550.877 911.586 550.536C911.586 549.299 911.224 548.339 910.498 547.656C909.816 546.973 908.813 546.632 907.49 546.632C905.784 546.632 904.141 547.4 902.562 548.936C901.026 550.429 899.426 552.755 897.762 555.912L894.306 569.736C894.221 570.163 894.178 570.483 894.178 570.696C894.178 571.421 894.52 571.955 895.202 572.296L896.034 572.68L895.97 573H885.474L885.538 572.68L886.498 572.296C887.181 572.04 887.672 571.699 887.97 571.272C888.312 570.845 888.546 570.333 888.674 569.736L898.466 530.696L898.594 529.928C898.594 529.331 898.232 528.861 897.506 528.52L896.674 528.136L896.738 527.816L905.186 526.28L898.786 551.688C900.066 549.171 901.688 547.101 903.65 545.48C905.613 543.859 907.746 543.048 910.05 543.048C912.397 543.048 914.146 543.688 915.298 544.968C916.493 546.205 917.09 547.912 917.09 550.088C917.09 551.112 916.92 552.349 916.578 553.8L912.738 569.096Z" fill="white"/>
<path d="M932.919 557.832C931.085 557.832 929.079 557.576 926.903 557.064C926.605 558.387 926.455 559.731 926.455 561.096C926.455 563.912 927.031 566.131 928.183 567.752C929.335 569.331 931.042 570.12 933.303 570.12C936.546 570.12 939.405 568.349 941.879 564.808L942.199 565C939.341 570.931 935.351 573.896 930.231 573.896C927.074 573.896 924.642 572.915 922.935 570.952C921.229 568.989 920.375 566.237 920.375 562.696C920.375 559.325 921.165 556.125 922.743 553.096C924.365 550.067 926.519 547.635 929.207 545.8C931.895 543.965 934.775 543.048 937.847 543.048C940.194 543.048 942.071 543.581 943.479 544.648C944.93 545.672 945.655 547.059 945.655 548.808C945.655 550.259 945.143 551.688 944.119 553.096C943.138 554.461 941.687 555.592 939.767 556.488C937.847 557.384 935.565 557.832 932.919 557.832ZM937.207 544.776C935.031 544.776 933.069 545.779 931.319 547.784C929.57 549.747 928.269 552.179 927.415 555.08C928.951 555.549 930.423 555.784 931.831 555.784C933.709 555.784 935.266 555.421 936.503 554.696C937.783 553.928 938.722 552.989 939.319 551.88C939.959 550.728 940.279 549.597 940.279 548.488C940.279 547.379 940.002 546.483 939.447 545.8C938.935 545.117 938.189 544.776 937.207 544.776Z" fill="white"/>
<path d="M962.061 573V572.68L963.405 572.104C964.003 571.805 964.408 571.485 964.621 571.144C964.835 570.803 964.941 570.355 964.941 569.8V531.4C964.941 530.845 964.835 530.397 964.621 530.056C964.408 529.715 964.003 529.395 963.405 529.096L962.061 528.52V528.2H976.525C979.427 528.2 981.965 528.648 984.141 529.544C986.36 530.44 988.067 531.699 989.261 533.32C990.456 534.899 991.053 536.733 991.053 538.824C991.053 541.043 990.179 543.005 988.429 544.712C986.723 546.376 984.419 547.571 981.517 548.296C985.699 548.893 989.027 550.259 991.501 552.392C993.976 554.525 995.213 557.213 995.213 560.456C995.213 562.675 994.573 564.744 993.293 566.664C992.056 568.541 990.051 570.077 987.277 571.272C984.547 572.424 981.069 573 976.845 573H962.061ZM975.821 547.976C978.68 547.976 980.899 547.101 982.477 545.352C984.099 543.603 984.909 541.363 984.909 538.632C984.909 536.072 984.077 534.024 982.413 532.488C980.792 530.909 978.488 530.12 975.501 530.12C974.605 530.12 973.752 530.205 972.941 530.376C972.131 530.547 971.512 530.76 971.085 531.016V547.976H975.821ZM977.421 571.08C980.109 571.08 982.285 570.547 983.949 569.48C985.656 568.371 986.872 567.005 987.597 565.384C988.323 563.763 988.685 562.077 988.685 560.328C988.685 557.469 987.725 555.016 985.805 552.968C983.885 550.92 980.877 549.896 976.781 549.896H971.085V570.12C973.091 570.76 975.203 571.08 977.421 571.08Z" fill="white"/>
<path d="M997.749 573V572.68L999.093 572.104C999.69 571.805 1000.1 571.485 1000.31 571.144C1000.52 570.803 1000.63 570.355 1000.63 569.8V531.4C1000.63 530.845 1000.52 530.397 1000.31 530.056C1000.1 529.715 999.69 529.395 999.093 529.096L997.749 528.52V528.2H1012.21C1016.78 528.2 1020.43 529.203 1023.16 531.208C1025.89 533.213 1027.25 535.923 1027.25 539.336C1027.25 542.024 1026.31 544.371 1024.44 546.376C1022.6 548.381 1020.02 549.768 1016.69 550.536C1017.8 550.835 1018.7 551.219 1019.38 551.688C1020.11 552.115 1020.87 552.84 1021.68 553.864C1022.54 554.888 1023.65 556.445 1025.01 558.536L1031.92 569.032C1032.56 569.971 1033.2 570.696 1033.84 571.208C1034.53 571.72 1035.44 572.211 1036.6 572.68V573H1030.26C1029.11 573 1028.17 572.765 1027.44 572.296C1026.76 571.827 1026.08 571.016 1025.4 569.864L1016.95 555.848C1015.88 554.099 1014.94 552.947 1014.13 552.392C1013.36 551.795 1012.19 551.496 1010.61 551.496H1006.77V569.8C1006.77 570.355 1006.88 570.803 1007.09 571.144C1007.31 571.485 1007.71 571.805 1008.31 572.104L1009.65 572.68V573H997.749ZM1012.79 549.576C1015.43 549.576 1017.52 548.467 1019.06 546.248C1019.7 545.309 1020.19 544.307 1020.53 543.24C1020.92 542.131 1021.11 540.829 1021.11 539.336C1021.11 536.605 1020.23 534.387 1018.48 532.68C1016.74 530.973 1014.3 530.12 1011.19 530.12C1010.29 530.12 1009.44 530.205 1008.63 530.376C1007.82 530.547 1007.2 530.76 1006.77 531.016V549.576H1012.79Z" fill="white"/>
<path d="M1053 573V572.68L1054.34 572.104C1054.94 571.805 1055.35 571.485 1055.56 571.144C1055.77 570.803 1055.88 570.355 1055.88 569.8V531.4C1055.88 530.845 1055.77 530.397 1055.56 530.056C1055.35 529.715 1054.94 529.395 1054.34 529.096L1053 528.52V528.2H1064.9V528.52L1063.56 529.096C1062.96 529.395 1062.56 529.715 1062.34 530.056C1062.13 530.397 1062.02 530.845 1062.02 531.4V571.08H1075.4C1076.42 571.08 1077.23 570.931 1077.83 570.632C1078.47 570.291 1079.05 569.693 1079.56 568.84L1080.84 566.344H1081.16L1080.2 573H1053Z" fill="white"/>
<path d="M1103.81 574.152C1099.5 574.152 1095.51 573.107 1091.84 571.016C1088.18 568.925 1085.25 566.088 1083.08 562.504C1080.94 558.877 1079.88 554.909 1079.88 550.6C1079.88 546.333 1080.94 542.408 1083.08 538.824C1085.25 535.197 1088.18 532.339 1091.84 530.248C1095.51 528.115 1099.5 527.048 1103.81 527.048C1108.12 527.048 1112.11 528.115 1115.78 530.248C1119.45 532.339 1122.35 535.197 1124.48 538.824C1126.66 542.408 1127.75 546.333 1127.75 550.6C1127.75 554.909 1126.66 558.877 1124.48 562.504C1122.35 566.088 1119.45 568.925 1115.78 571.016C1112.11 573.107 1108.12 574.152 1103.81 574.152ZM1104.45 572.232C1107.57 572.232 1110.34 571.293 1112.77 569.416C1115.25 567.496 1117.15 564.957 1118.47 561.8C1119.83 558.643 1120.52 555.208 1120.52 551.496C1120.52 547.443 1119.77 543.688 1118.28 540.232C1116.78 536.776 1114.71 534.045 1112.07 532.04C1109.42 529.992 1106.46 528.968 1103.17 528.968C1100.06 528.968 1097.26 529.928 1094.79 531.848C1092.36 533.725 1090.46 536.243 1089.09 539.4C1087.77 542.557 1087.11 545.992 1087.11 549.704C1087.11 553.8 1087.86 557.576 1089.35 561.032C1090.84 564.445 1092.91 567.176 1095.56 569.224C1098.2 571.229 1101.17 572.232 1104.45 572.232Z" fill="white"/>
<path d="M1155.75 574.152C1151.44 574.152 1147.45 573.107 1143.78 571.016C1140.11 568.925 1137.19 566.088 1135.01 562.504C1132.88 558.877 1131.81 554.909 1131.81 550.6C1131.81 546.333 1132.88 542.408 1135.01 538.824C1137.19 535.197 1140.11 532.339 1143.78 530.248C1147.45 528.115 1151.44 527.048 1155.75 527.048C1160.06 527.048 1164.05 528.115 1167.72 530.248C1171.39 532.339 1174.29 535.197 1176.42 538.824C1178.6 542.408 1179.69 546.333 1179.69 550.6C1179.69 554.909 1178.6 558.877 1176.42 562.504C1174.29 566.088 1171.39 568.925 1167.72 571.016C1164.05 573.107 1160.06 574.152 1155.75 574.152ZM1156.39 572.232C1159.5 572.232 1162.28 571.293 1164.71 569.416C1167.18 567.496 1169.08 564.957 1170.41 561.8C1171.77 558.643 1172.45 555.208 1172.45 551.496C1172.45 547.443 1171.71 543.688 1170.21 540.232C1168.72 536.776 1166.65 534.045 1164.01 532.04C1161.36 529.992 1158.4 528.968 1155.11 528.968C1152 528.968 1149.2 529.928 1146.73 531.848C1144.29 533.725 1142.4 536.243 1141.03 539.4C1139.71 542.557 1139.05 545.992 1139.05 549.704C1139.05 553.8 1139.79 557.576 1141.29 561.032C1142.78 564.445 1144.85 567.176 1147.49 569.224C1150.14 571.229 1153.1 572.232 1156.39 572.232Z" fill="white"/>
<path d="M1182.37 573V572.68L1183.72 572.104C1184.32 571.848 1184.72 571.549 1184.93 571.208C1185.15 570.867 1185.25 570.397 1185.25 569.8V531.4C1185.25 530.803 1185.15 530.333 1184.93 529.992C1184.72 529.651 1184.32 529.352 1183.72 529.096L1182.37 528.52V528.2H1194.28V528.52L1192.93 529.096C1192.34 529.352 1191.93 529.651 1191.72 529.992C1191.5 530.333 1191.4 530.803 1191.4 531.4V549.256L1210.09 531.528C1210.68 530.973 1210.98 530.419 1210.98 529.864C1210.98 529.309 1210.7 528.968 1210.15 528.84L1209.06 528.52V528.2H1219.3V528.52L1217.77 529.096C1216.57 529.565 1215.59 530.035 1214.82 530.504C1214.1 530.931 1213.24 531.592 1212.26 532.488L1196.71 547.4L1217.38 569.544C1218.02 570.227 1218.64 570.76 1219.24 571.144C1219.84 571.528 1220.52 571.869 1221.29 572.168L1222.63 572.68V573H1208.36V572.68L1209.45 572.232C1209.96 572.019 1210.21 571.677 1210.21 571.208C1210.21 570.739 1209.94 570.205 1209.38 569.608L1191.4 550.6V569.8C1191.4 570.397 1191.5 570.867 1191.72 571.208C1191.93 571.549 1192.34 571.848 1192.93 572.104L1194.28 572.68V573H1182.37Z" fill="white"/>
<path d="M738.884 600.418C739.822 600.418 740.844 600.712 741.866 601.524V599.928C740.928 599.242 739.794 598.976 738.772 598.976C736.07 598.976 733.788 600.838 733.788 604.114C733.788 607.404 736.07 609.266 738.772 609.266C739.808 609.266 740.928 608.986 741.866 608.286V606.718C740.844 607.53 739.822 607.824 738.884 607.824C736.84 607.824 735.286 606.382 735.286 604.114C735.286 601.846 736.84 600.418 738.884 600.418Z" fill="white"/>
<path d="M750.082 605.892V605.276C750.082 603.12 748.962 601.79 747.016 601.79C744.832 601.79 743.544 603.442 743.544 605.486C743.544 607.67 744.986 609.126 747.268 609.126C748.206 609.126 749.088 608.888 749.872 608.37V607.04C749.102 607.6 748.248 607.894 747.338 607.894C745.91 607.894 745.07 607.152 744.93 605.892H750.082ZM744.958 604.814C745.14 603.736 745.798 603.036 746.918 603.036C747.996 603.036 748.668 603.708 748.668 604.814H744.958Z" fill="white"/>
<path d="M753.593 609V599.046H752.179V609H753.593Z" fill="white"/>
<path d="M762.242 605.892V605.276C762.242 603.12 761.122 601.79 759.176 601.79C756.992 601.79 755.704 603.442 755.704 605.486C755.704 607.67 757.146 609.126 759.428 609.126C760.366 609.126 761.248 608.888 762.032 608.37V607.04C761.262 607.6 760.408 607.894 759.498 607.894C758.07 607.894 757.23 607.152 757.09 605.892H762.242ZM757.118 604.814C757.3 603.736 757.958 603.036 759.078 603.036C760.156 603.036 760.828 603.708 760.828 604.814H757.118Z" fill="white"/>
<path d="M768.035 601.79C767.139 601.79 766.313 602.084 765.767 602.728V599.046H764.339V609H765.739V608.188C766.299 608.846 767.125 609.126 767.979 609.126C770.219 609.126 771.367 607.25 771.367 605.388C771.367 603.568 770.261 601.79 768.035 601.79ZM765.767 606.844V604.058C766.215 603.442 766.929 603.078 767.769 603.078C769.253 603.078 769.939 604.254 769.939 605.43C769.939 606.634 769.267 607.838 767.797 607.838C766.943 607.838 766.215 607.46 765.767 606.844Z" fill="white"/>
<path d="M773.468 601.916V609H774.896V604.156C775.288 603.498 775.988 603.162 776.772 603.162C777.066 603.162 777.374 603.218 777.668 603.302V601.986C777.388 601.916 777.094 601.874 776.814 601.874C776.03 601.874 775.302 602.168 774.868 602.868V601.916H773.468Z" fill="white"/>
<path d="M784.744 609V604.156C784.744 602.672 783.764 601.79 782.028 601.79C781.048 601.79 780.138 602.07 779.424 602.63V603.988C780.11 603.428 780.978 603.036 781.916 603.036C782.812 603.036 783.33 603.386 783.33 603.974C783.33 604.534 782.84 604.688 782.322 604.814L781.37 605.038C780.46 605.248 778.976 605.612 778.976 607.208C778.976 608.482 779.886 609.126 781.118 609.126C782.098 609.126 782.84 608.72 783.358 607.936V609H784.744ZM780.39 607.124C780.39 606.368 781.048 606.172 781.706 606.004L782.322 605.85C782.644 605.766 782.966 605.682 783.33 605.5V606.144C783.33 607.25 782.42 607.964 781.426 607.964C780.824 607.964 780.39 607.712 780.39 607.124Z" fill="white"/>
<path d="M792.309 601.916H789.481V599.704H788.053V601.916H786.373V603.176H788.053V606.452C788.053 608.188 789.243 609.126 790.699 609.126C791.273 609.126 791.889 608.972 792.477 608.664V607.376C792.001 607.684 791.469 607.852 790.993 607.852C790.167 607.852 789.481 607.376 789.481 606.326V603.176H792.309V601.916Z" fill="white"/>
<path d="M800.34 605.892V605.276C800.34 603.12 799.22 601.79 797.274 601.79C795.09 601.79 793.802 603.442 793.802 605.486C793.802 607.67 795.244 609.126 797.526 609.126C798.464 609.126 799.346 608.888 800.13 608.37V607.04C799.36 607.6 798.506 607.894 797.596 607.894C796.168 607.894 795.328 607.152 795.188 605.892H800.34ZM795.216 604.814C795.398 603.736 796.056 603.036 797.176 603.036C798.254 603.036 798.926 603.708 798.926 604.814H795.216Z" fill="white"/>
<path d="M811.246 601.916H808.418V599.704H806.99V601.916H805.31V603.176H806.99V606.452C806.99 608.188 808.18 609.126 809.636 609.126C810.21 609.126 810.826 608.972 811.414 608.664V607.376C810.938 607.684 810.406 607.852 809.93 607.852C809.104 607.852 808.418 607.376 808.418 606.326V603.176H811.246V601.916Z" fill="white"/>
<path d="M813.23 599.046V609H814.658V604.086C815.12 603.442 815.862 603.106 816.548 603.106C817.43 603.106 818.186 603.652 818.186 604.8V609H819.614V604.45C819.614 602.77 818.368 601.79 816.856 601.79C816.016 601.79 815.26 602.098 814.658 602.728V599.046H813.23Z" fill="white"/>
<path d="M828.202 605.892V605.276C828.202 603.12 827.082 601.79 825.136 601.79C822.952 601.79 821.664 603.442 821.664 605.486C821.664 607.67 823.106 609.126 825.388 609.126C826.326 609.126 827.208 608.888 827.992 608.37V607.04C827.222 607.6 826.368 607.894 825.458 607.894C824.03 607.894 823.19 607.152 823.05 605.892H828.202ZM823.078 604.814C823.26 603.736 823.918 603.036 825.038 603.036C826.116 603.036 826.788 603.708 826.788 604.814H823.078Z" fill="white"/>
<path d="M834.219 601.916V609H835.647V604.044C836.025 603.442 836.711 603.106 837.327 603.106C838.209 603.106 838.881 603.694 838.881 604.8V609H840.309V604.044C840.701 603.442 841.387 603.106 841.989 603.106C842.871 603.106 843.557 603.694 843.557 604.8V609H844.985V604.562C844.985 602.882 843.837 601.79 842.227 601.79C841.289 601.79 840.421 602.196 839.819 602.924C839.413 602.21 838.559 601.79 837.593 601.79C836.809 601.79 836.011 602.056 835.619 602.7V601.916H834.219Z" fill="white"/>
<path d="M850.57 601.79C848.47 601.79 847.014 603.302 847.014 605.444C847.014 607.586 848.47 609.126 850.57 609.126C852.684 609.126 854.14 607.614 854.14 605.472C854.14 603.33 852.684 601.79 850.57 601.79ZM848.442 605.444C848.442 604.03 849.254 603.106 850.57 603.106C851.9 603.106 852.712 604.044 852.712 605.458C852.712 606.886 851.9 607.796 850.57 607.796C849.254 607.796 848.442 606.872 848.442 605.444Z" fill="white"/>
<path d="M855.844 606.984V608.342C856.558 608.846 857.594 609.126 858.56 609.126C860.142 609.126 861.346 608.356 861.346 606.97C861.346 605.458 859.904 605.136 859.232 604.982L858.42 604.8C857.762 604.646 857.244 604.492 857.244 603.932C857.244 603.302 857.874 603.008 858.672 603.008C859.386 603.008 860.1 603.218 860.758 603.624V602.322C860.086 601.958 859.4 601.79 858.616 601.79C857.062 601.79 855.844 602.434 855.844 603.946C855.844 605.416 856.964 605.766 858.098 606.032L858.798 606.186C859.358 606.326 859.918 606.494 859.918 607.04C859.918 607.572 859.4 607.894 858.504 607.894C857.65 607.894 856.698 607.614 855.844 606.984Z" fill="white"/>
<path d="M868.477 601.916H865.649V599.704H864.221V601.916H862.541V603.176H864.221V606.452C864.221 608.188 865.411 609.126 866.867 609.126C867.441 609.126 868.057 608.972 868.645 608.664V607.376C868.169 607.684 867.637 607.852 867.161 607.852C866.335 607.852 865.649 607.376 865.649 606.326V603.176H868.477V601.916Z" fill="white"/>
<path d="M874.518 601.916V609H875.946V604.044C876.324 603.442 877.01 603.106 877.626 603.106C878.508 603.106 879.18 603.694 879.18 604.8V609H880.608V604.044C881 603.442 881.686 603.106 882.288 603.106C883.17 603.106 883.856 603.694 883.856 604.8V609H885.284V604.562C885.284 602.882 884.136 601.79 882.526 601.79C881.588 601.79 880.72 602.196 880.118 602.924C879.712 602.21 878.858 601.79 877.892 601.79C877.108 601.79 876.31 602.056 875.918 602.7V601.916H874.518Z" fill="white"/>
<path d="M893.081 609V604.156C893.081 602.672 892.101 601.79 890.365 601.79C889.385 601.79 888.475 602.07 887.761 602.63V603.988C888.447 603.428 889.315 603.036 890.253 603.036C891.149 603.036 891.667 603.386 891.667 603.974C891.667 604.534 891.177 604.688 890.659 604.814L889.707 605.038C888.797 605.248 887.313 605.612 887.313 607.208C887.313 608.482 888.223 609.126 889.455 609.126C890.435 609.126 891.177 608.72 891.695 607.936V609H893.081ZM888.727 607.124C888.727 606.368 889.385 606.172 890.043 606.004L890.659 605.85C890.981 605.766 891.303 605.682 891.667 605.5V606.144C891.667 607.25 890.757 607.964 889.763 607.964C889.161 607.964 888.727 607.712 888.727 607.124Z" fill="white"/>
<path d="M902.354 601.916H898.532C896.334 601.916 895.368 603.246 895.368 604.618C895.368 605.556 895.83 606.326 896.614 606.76C895.956 606.914 895.69 607.334 895.69 607.768C895.69 608.286 896.082 608.678 896.698 608.818C895.564 609.028 894.99 609.63 894.99 610.484C894.99 611.856 896.46 612.374 898.252 612.374C900.142 612.374 901.822 611.772 901.822 610.218C901.822 608.608 900.072 608.356 899.022 608.314L898.028 608.272C897.678 608.258 896.978 608.216 896.978 607.726C896.978 607.292 897.552 607.222 898.168 607.138C900.058 606.9 901.192 606.088 901.192 604.618C901.192 603.974 900.968 603.554 900.45 603.176H902.354V601.916ZM896.32 610.372C896.32 609.588 897.272 609.448 898.336 609.448C899.862 609.448 900.464 609.714 900.464 610.316C900.464 611.086 899.47 611.282 898.266 611.282C897.174 611.282 896.32 611.128 896.32 610.372ZM896.712 604.618C896.712 603.764 897.328 603.148 898.28 603.148C899.232 603.148 899.862 603.764 899.862 604.618C899.862 605.472 899.232 606.06 898.28 606.06C897.328 606.06 896.712 605.458 896.712 604.618Z" fill="white"/>
<path d="M903.969 601.916V609H905.397V604.086C905.859 603.442 906.601 603.106 907.287 603.106C908.169 603.106 908.925 603.652 908.925 604.8V609H910.353V604.45C910.353 602.77 909.107 601.79 907.595 601.79C906.741 601.79 905.971 602.098 905.369 602.756V601.916H903.969Z" fill="white"/>
<path d="M913.565 600.726C914.167 600.726 914.587 600.32 914.587 599.76C914.587 599.2 914.181 598.794 913.565 598.794C912.963 598.794 912.571 599.2 912.571 599.76C912.571 600.32 912.963 600.726 913.565 600.726ZM912.879 609H914.307V601.916H912.879V609Z" fill="white"/>
<path d="M915.958 601.916V603.176H917.47V609H918.898V603.176H922.44V609H923.854V601.916H918.898V601.342C918.898 600.516 919.472 600.138 920.214 600.138C920.522 600.138 920.858 600.208 921.194 600.348V599.088C920.774 598.934 920.382 598.864 919.962 598.864C918.534 598.864 917.47 599.76 917.47 601.342V601.916H915.958Z" fill="white"/>
<path d="M929.696 603.106C930.312 603.106 931.026 603.316 931.698 603.764V602.434C931.068 601.958 930.27 601.79 929.584 601.79C927.61 601.79 925.944 603.176 925.944 605.472C925.944 607.768 927.582 609.126 929.57 609.126C930.27 609.126 931.068 608.944 931.698 608.496V607.138C931.04 607.6 930.34 607.796 929.682 607.796C928.38 607.796 927.358 607.012 927.358 605.486C927.358 603.974 928.366 603.106 929.696 603.106Z" fill="white"/>
<path d="M939.848 605.892V605.276C939.848 603.12 938.728 601.79 936.782 601.79C934.598 601.79 933.31 603.442 933.31 605.486C933.31 607.67 934.752 609.126 937.034 609.126C937.972 609.126 938.854 608.888 939.638 608.37V607.04C938.868 607.6 938.014 607.894 937.104 607.894C935.676 607.894 934.836 607.152 934.696 605.892H939.848ZM934.724 604.814C934.906 603.736 935.564 603.036 936.684 603.036C937.762 603.036 938.434 603.708 938.434 604.814H934.724Z" fill="white"/>
<path d="M941.944 601.916V609H943.372V604.086C943.834 603.442 944.576 603.106 945.262 603.106C946.144 603.106 946.9 603.652 946.9 604.8V609H948.328V604.45C948.328 602.77 947.082 601.79 945.57 601.79C944.716 601.79 943.946 602.098 943.344 602.756V601.916H941.944Z" fill="white"/>
<path d="M955.894 601.916H953.066V599.704H951.638V601.916H949.958V603.176H951.638V606.452C951.638 608.188 952.828 609.126 954.284 609.126C954.858 609.126 955.474 608.972 956.062 608.664V607.376C955.586 607.684 955.054 607.852 954.578 607.852C953.752 607.852 953.066 607.376 953.066 606.326V603.176H955.894V601.916Z" fill="white"/>
<path d="M968.336 599.046H966.908V602.686C966.348 602.056 965.592 601.79 964.738 601.79C962.75 601.79 961.308 603.316 961.308 605.444C961.308 607.572 962.75 609.126 964.724 609.126C965.606 609.126 966.362 608.818 966.936 608.132V609H968.336V599.046ZM962.736 605.444C962.736 604.072 963.52 603.078 964.934 603.078C965.774 603.078 966.446 603.428 966.908 604.058V606.844C966.474 607.446 965.788 607.838 964.92 607.838C963.506 607.838 962.736 606.816 962.736 605.444Z" fill="white"/>
<path d="M976.205 609V604.156C976.205 602.672 975.225 601.79 973.489 601.79C972.509 601.79 971.599 602.07 970.885 602.63V603.988C971.571 603.428 972.439 603.036 973.377 603.036C974.273 603.036 974.791 603.386 974.791 603.974C974.791 604.534 974.301 604.688 973.783 604.814L972.831 605.038C971.921 605.248 970.437 605.612 970.437 607.208C970.437 608.482 971.347 609.126 972.579 609.126C973.559 609.126 974.301 608.72 974.819 607.936V609H976.205ZM971.851 607.124C971.851 606.368 972.509 606.172 973.167 606.004L973.783 605.85C974.105 605.766 974.427 605.682 974.791 605.5V606.144C974.791 607.25 973.881 607.964 972.887 607.964C972.285 607.964 971.851 607.712 971.851 607.124Z" fill="white"/>
<path d="M983.325 601.916L981.253 607.166L979.195 601.916H977.641L980.539 608.874L980.329 609.434C980.035 610.148 979.475 610.47 978.789 610.47C978.425 610.47 978.047 610.372 977.669 610.218V611.45C978.117 611.618 978.495 611.688 978.929 611.688C980.217 611.688 981.113 610.96 981.701 609.532L984.851 601.916H983.325Z" fill="white"/>
<path d="M986.004 606.984V608.342C986.718 608.846 987.754 609.126 988.72 609.126C990.302 609.126 991.506 608.356 991.506 606.97C991.506 605.458 990.064 605.136 989.392 604.982L988.58 604.8C987.922 604.646 987.404 604.492 987.404 603.932C987.404 603.302 988.034 603.008 988.832 603.008C989.546 603.008 990.26 603.218 990.918 603.624V602.322C990.246 601.958 989.56 601.79 988.776 601.79C987.222 601.79 986.004 602.434 986.004 603.946C986.004 605.416 987.124 605.766 988.258 606.032L988.958 606.186C989.518 606.326 990.078 606.494 990.078 607.04C990.078 607.572 989.56 607.894 988.664 607.894C987.81 607.894 986.858 607.614 986.004 606.984Z" fill="white"/>
<path d="M1000.46 601.79C998.36 601.79 996.904 603.302 996.904 605.444C996.904 607.586 998.36 609.126 1000.46 609.126C1002.57 609.126 1004.03 607.614 1004.03 605.472C1004.03 603.33 1002.57 601.79 1000.46 601.79ZM998.332 605.444C998.332 604.03 999.144 603.106 1000.46 603.106C1001.79 603.106 1002.6 604.044 1002.6 605.458C1002.6 606.886 1001.79 607.796 1000.46 607.796C999.144 607.796 998.332 606.872 998.332 605.444Z" fill="white"/>
<path d="M1006.74 603.176V609H1008.17V603.176H1010.4V601.916H1008.17V601.342C1008.17 600.516 1008.74 600.138 1009.49 600.138C1009.88 600.138 1010.31 600.25 1010.75 600.488V599.2C1010.24 598.962 1009.74 598.864 1009.23 598.864C1007.81 598.864 1006.74 599.76 1006.74 601.342V601.916H1005.23V603.176H1006.74Z" fill="white"/>
<path d="M1015.67 606.984V608.342C1016.38 608.846 1017.42 609.126 1018.38 609.126C1019.96 609.126 1021.17 608.356 1021.17 606.97C1021.17 605.458 1019.73 605.136 1019.05 604.982L1018.24 604.8C1017.58 604.646 1017.07 604.492 1017.07 603.932C1017.07 603.302 1017.7 603.008 1018.49 603.008C1019.21 603.008 1019.92 603.218 1020.58 603.624V602.322C1019.91 601.958 1019.22 601.79 1018.44 601.79C1016.88 601.79 1015.67 602.434 1015.67 603.946C1015.67 605.416 1016.79 605.766 1017.92 606.032L1018.62 606.186C1019.18 606.326 1019.74 606.494 1019.74 607.04C1019.74 607.572 1019.22 607.894 1018.33 607.894C1017.47 607.894 1016.52 607.614 1015.67 606.984Z" fill="white"/>
<path d="M1029.52 601.916H1028.09V606.844C1027.6 607.474 1026.93 607.796 1026.24 607.796C1025.39 607.796 1024.62 607.236 1024.62 606.06V601.916H1023.2V606.354C1023.2 608.104 1024.41 609.126 1025.95 609.126C1026.76 609.126 1027.5 608.832 1028.12 608.174V609H1029.52V601.916Z" fill="white"/>
<path d="M1032.1 601.916V609H1033.53V604.044C1033.91 603.442 1034.59 603.106 1035.21 603.106C1036.09 603.106 1036.76 603.694 1036.76 604.8V609H1038.19V604.044C1038.58 603.442 1039.27 603.106 1039.87 603.106C1040.75 603.106 1041.44 603.694 1041.44 604.8V609H1042.87V604.562C1042.87 602.882 1041.72 601.79 1040.11 601.79C1039.17 601.79 1038.3 602.196 1037.7 602.924C1037.3 602.21 1036.44 601.79 1035.48 601.79C1034.69 601.79 1033.89 602.056 1033.5 602.7V601.916H1032.1Z" fill="white"/>
<path d="M1045.39 601.916V609H1046.81V604.044C1047.19 603.442 1047.88 603.106 1048.49 603.106C1049.38 603.106 1050.05 603.694 1050.05 604.8V609H1051.48V604.044C1051.87 603.442 1052.55 603.106 1053.16 603.106C1054.04 603.106 1054.72 603.694 1054.72 604.8V609H1056.15V604.562C1056.15 602.882 1055 601.79 1053.39 601.79C1052.46 601.79 1051.59 602.196 1050.99 602.924C1050.58 602.21 1049.73 601.79 1048.76 601.79C1047.98 601.79 1047.18 602.056 1046.79 602.7V601.916H1045.39Z" fill="white"/>
<path d="M1064.72 605.892V605.276C1064.72 603.12 1063.6 601.79 1061.65 601.79C1059.47 601.79 1058.18 603.442 1058.18 605.486C1058.18 607.67 1059.62 609.126 1061.91 609.126C1062.84 609.126 1063.73 608.888 1064.51 608.37V607.04C1063.74 607.6 1062.89 607.894 1061.98 607.894C1060.55 607.894 1059.71 607.152 1059.57 605.892H1064.72ZM1059.6 604.814C1059.78 603.736 1060.44 603.036 1061.56 603.036C1062.63 603.036 1063.31 603.708 1063.31 604.814H1059.6Z" fill="white"/>
<path d="M1066.82 601.916V609H1068.24V604.156C1068.64 603.498 1069.34 603.162 1070.12 603.162C1070.41 603.162 1070.72 603.218 1071.02 603.302V601.986C1070.74 601.916 1070.44 601.874 1070.16 601.874C1069.38 601.874 1068.65 602.168 1068.22 602.868V601.916H1066.82Z" fill="white"/>
<path d="M1085.02 601.916L1083.24 607.068L1081.64 601.916H1080.45L1078.86 607.068L1077.08 601.916H1075.54L1078.2 609H1079.44L1081.05 604.282L1082.66 609H1083.91L1086.57 601.916H1085.02Z" fill="white"/>
<path d="M1088.94 600.726C1089.54 600.726 1089.96 600.32 1089.96 599.76C1089.96 599.2 1089.56 598.794 1088.94 598.794C1088.34 598.794 1087.95 599.2 1087.95 599.76C1087.95 600.32 1088.34 600.726 1088.94 600.726ZM1088.26 609H1089.68V601.916H1088.26V609Z" fill="white"/>
<path d="M1097.27 601.916H1094.44V599.704H1093.01V601.916H1091.33V603.176H1093.01V606.452C1093.01 608.188 1094.2 609.126 1095.66 609.126C1096.23 609.126 1096.85 608.972 1097.44 608.664V607.376C1096.96 607.684 1096.43 607.852 1095.95 607.852C1095.13 607.852 1094.44 607.376 1094.44 606.326V603.176H1097.27V601.916Z" fill="white"/>
<path d="M1099.25 599.046V609H1100.68V604.086C1101.14 603.442 1101.89 603.106 1102.57 603.106C1103.45 603.106 1104.21 603.652 1104.21 604.8V609H1105.64V604.45C1105.64 602.77 1104.39 601.79 1102.88 601.79C1102.04 601.79 1101.28 602.098 1100.68 602.728V599.046H1099.25Z" fill="white"/>
<path d="M1118.28 605.892V605.276C1118.28 603.12 1117.16 601.79 1115.22 601.79C1113.03 601.79 1111.75 603.442 1111.75 605.486C1111.75 607.67 1113.19 609.126 1115.47 609.126C1116.41 609.126 1117.29 608.888 1118.07 608.37V607.04C1117.3 607.6 1116.45 607.894 1115.54 607.894C1114.11 607.894 1113.27 607.152 1113.13 605.892H1118.28ZM1113.16 604.814C1113.34 603.736 1114 603.036 1115.12 603.036C1116.2 603.036 1116.87 603.708 1116.87 604.814H1113.16Z" fill="white"/>
<path d="M1126.47 601.916H1124.74L1123.02 604.268L1121.27 601.916H1119.56L1122.19 605.36L1119.4 609H1121.14L1123.02 606.452L1124.88 609H1126.61L1123.84 605.36L1126.47 601.916Z" fill="white"/>
<path d="M1134.64 601.916H1133.22V602.728C1132.71 602.07 1131.89 601.79 1131.04 601.79C1129.05 601.79 1127.61 603.316 1127.61 605.402C1127.61 607.516 1129.07 609 1131.04 609C1131.91 609 1132.66 608.72 1133.21 608.076V611.688H1134.64V601.916ZM1129.04 605.374C1129.04 604.058 1129.82 603.078 1131.22 603.078C1132.1 603.078 1132.76 603.456 1133.21 604.058V606.718C1132.75 607.348 1132.06 607.712 1131.22 607.712C1129.82 607.712 1129.04 606.718 1129.04 605.374Z" fill="white"/>
<path d="M1143.41 601.916H1141.98V606.844C1141.49 607.474 1140.82 607.796 1140.13 607.796C1139.28 607.796 1138.51 607.236 1138.51 606.06V601.916H1137.09V606.354C1137.09 608.104 1138.3 609.126 1139.84 609.126C1140.65 609.126 1141.39 608.832 1142.01 608.174V609H1143.41V601.916Z" fill="white"/>
<path d="M1146.66 600.726C1147.26 600.726 1147.68 600.32 1147.68 599.76C1147.68 599.2 1147.28 598.794 1146.66 598.794C1146.06 598.794 1145.67 599.2 1145.67 599.76C1145.67 600.32 1146.06 600.726 1146.66 600.726ZM1145.98 609H1147.4V601.916H1145.98V609Z" fill="white"/>
<path d="M1149.56 606.984V608.342C1150.27 608.846 1151.31 609.126 1152.27 609.126C1153.86 609.126 1155.06 608.356 1155.06 606.97C1155.06 605.458 1153.62 605.136 1152.95 604.982L1152.13 604.8C1151.48 604.646 1150.96 604.492 1150.96 603.932C1150.96 603.302 1151.59 603.008 1152.39 603.008C1153.1 603.008 1153.81 603.218 1154.47 603.624V602.322C1153.8 601.958 1153.11 601.79 1152.33 601.79C1150.78 601.79 1149.56 602.434 1149.56 603.946C1149.56 605.416 1150.68 605.766 1151.81 606.032L1152.51 606.186C1153.07 606.326 1153.63 606.494 1153.63 607.04C1153.63 607.572 1153.11 607.894 1152.22 607.894C1151.36 607.894 1150.41 607.614 1149.56 606.984Z" fill="white"/>
<path d="M1157.84 600.726C1158.44 600.726 1158.86 600.32 1158.86 599.76C1158.86 599.2 1158.45 598.794 1157.84 598.794C1157.24 598.794 1156.84 599.2 1156.84 599.76C1156.84 600.32 1157.24 600.726 1157.84 600.726ZM1157.15 609H1158.58V601.916H1157.15V609Z" fill="white"/>
<path d="M1166.17 601.916H1163.34V599.704H1161.91V601.916H1160.23V603.176H1161.91V606.452C1161.91 608.188 1163.1 609.126 1164.56 609.126C1165.13 609.126 1165.75 608.972 1166.33 608.664V607.376C1165.86 607.684 1165.33 607.852 1164.85 607.852C1164.02 607.852 1163.34 607.376 1163.34 606.326V603.176H1166.17V601.916Z" fill="white"/>
<path d="M1174.2 605.892V605.276C1174.2 603.12 1173.08 601.79 1171.13 601.79C1168.95 601.79 1167.66 603.442 1167.66 605.486C1167.66 607.67 1169.1 609.126 1171.38 609.126C1172.32 609.126 1173.2 608.888 1173.99 608.37V607.04C1173.22 607.6 1172.36 607.894 1171.45 607.894C1170.03 607.894 1169.19 607.152 1169.05 605.892H1174.2ZM1169.07 604.814C1169.26 603.736 1169.91 603.036 1171.03 603.036C1172.11 603.036 1172.78 603.708 1172.78 604.814H1169.07Z" fill="white"/>
<path d="M1177.71 609V599.046H1176.29V609H1177.71Z" fill="white"/>
<path d="M1185.03 601.916L1182.96 607.166L1180.9 601.916H1179.34L1182.24 608.874L1182.03 609.434C1181.74 610.148 1181.18 610.47 1180.49 610.47C1180.13 610.47 1179.75 610.372 1179.37 610.218V611.45C1179.82 611.618 1180.2 611.688 1180.63 611.688C1181.92 611.688 1182.82 610.96 1183.4 609.532L1186.55 601.916H1185.03Z" fill="white"/>
<path d="M748.426 616.046H746.998V619.686C746.438 619.056 745.682 618.79 744.828 618.79C742.84 618.79 741.398 620.316 741.398 622.444C741.398 624.572 742.84 626.126 744.814 626.126C745.696 626.126 746.452 625.818 747.026 625.132V626H748.426V616.046ZM742.826 622.444C742.826 621.072 743.61 620.078 745.024 620.078C745.864 620.078 746.536 620.428 746.998 621.058V623.844C746.564 624.446 745.878 624.838 745.01 624.838C743.596 624.838 742.826 623.816 742.826 622.444Z" fill="white"/>
<path d="M757.065 622.892V622.276C757.065 620.12 755.945 618.79 753.999 618.79C751.815 618.79 750.527 620.442 750.527 622.486C750.527 624.67 751.969 626.126 754.251 626.126C755.189 626.126 756.071 625.888 756.855 625.37V624.04C756.085 624.6 755.231 624.894 754.321 624.894C752.893 624.894 752.053 624.152 751.913 622.892H757.065ZM751.941 621.814C752.123 620.736 752.781 620.036 753.901 620.036C754.979 620.036 755.651 620.708 755.651 621.814H751.941Z" fill="white"/>
<path d="M758.756 623.984V625.342C759.47 625.846 760.506 626.126 761.472 626.126C763.054 626.126 764.258 625.356 764.258 623.97C764.258 622.458 762.816 622.136 762.144 621.982L761.332 621.8C760.674 621.646 760.156 621.492 760.156 620.932C760.156 620.302 760.786 620.008 761.584 620.008C762.298 620.008 763.012 620.218 763.67 620.624V619.322C762.998 618.958 762.312 618.79 761.528 618.79C759.974 618.79 758.756 619.434 758.756 620.946C758.756 622.416 759.876 622.766 761.01 623.032L761.71 623.186C762.27 623.326 762.83 623.494 762.83 624.04C762.83 624.572 762.312 624.894 761.416 624.894C760.562 624.894 759.61 624.614 758.756 623.984Z" fill="white"/>
<path d="M767.035 617.726C767.637 617.726 768.057 617.32 768.057 616.76C768.057 616.2 767.651 615.794 767.035 615.794C766.433 615.794 766.041 616.2 766.041 616.76C766.041 617.32 766.433 617.726 767.035 617.726ZM766.349 626H767.777V618.916H766.349V626Z" fill="white"/>
<path d="M777.072 618.916H773.25C771.052 618.916 770.086 620.246 770.086 621.618C770.086 622.556 770.548 623.326 771.332 623.76C770.674 623.914 770.408 624.334 770.408 624.768C770.408 625.286 770.8 625.678 771.416 625.818C770.282 626.028 769.708 626.63 769.708 627.484C769.708 628.856 771.178 629.374 772.97 629.374C774.86 629.374 776.54 628.772 776.54 627.218C776.54 625.608 774.79 625.356 773.74 625.314L772.746 625.272C772.396 625.258 771.696 625.216 771.696 624.726C771.696 624.292 772.27 624.222 772.886 624.138C774.776 623.9 775.91 623.088 775.91 621.618C775.91 620.974 775.686 620.554 775.168 620.176H777.072V618.916ZM771.038 627.372C771.038 626.588 771.99 626.448 773.054 626.448C774.58 626.448 775.182 626.714 775.182 627.316C775.182 628.086 774.188 628.282 772.984 628.282C771.892 628.282 771.038 628.128 771.038 627.372ZM771.43 621.618C771.43 620.764 772.046 620.148 772.998 620.148C773.95 620.148 774.58 620.764 774.58 621.618C774.58 622.472 773.95 623.06 772.998 623.06C772.046 623.06 771.43 622.458 771.43 621.618Z" fill="white"/>
<path d="M778.688 618.916V626H780.116V621.086C780.578 620.442 781.32 620.106 782.006 620.106C782.888 620.106 783.644 620.652 783.644 621.8V626H785.072V621.45C785.072 619.77 783.826 618.79 782.314 618.79C781.46 618.79 780.69 619.098 780.088 619.756V618.916H778.688Z" fill="white"/>
<path d="M793.659 622.892V622.276C793.659 620.12 792.539 618.79 790.593 618.79C788.409 618.79 787.121 620.442 787.121 622.486C787.121 624.67 788.563 626.126 790.845 626.126C791.783 626.126 792.665 625.888 793.449 625.37V624.04C792.679 624.6 791.825 624.894 790.915 624.894C789.487 624.894 788.647 624.152 788.507 622.892H793.659ZM788.535 621.814C788.717 620.736 789.375 620.036 790.495 620.036C791.573 620.036 792.245 620.708 792.245 621.814H788.535Z" fill="white"/>
<path d="M802.294 616.046H800.866V619.686C800.306 619.056 799.55 618.79 798.696 618.79C796.708 618.79 795.266 620.316 795.266 622.444C795.266 624.572 796.708 626.126 798.682 626.126C799.564 626.126 800.32 625.818 800.894 625.132V626H802.294V616.046ZM796.694 622.444C796.694 621.072 797.478 620.078 798.892 620.078C799.732 620.078 800.404 620.428 800.866 621.058V623.844C800.432 624.446 799.746 624.838 798.878 624.838C797.464 624.838 796.694 623.816 796.694 622.444Z" fill="white"/>
<path d="M808.399 623.984V625.342C809.113 625.846 810.149 626.126 811.115 626.126C812.697 626.126 813.901 625.356 813.901 623.97C813.901 622.458 812.459 622.136 811.787 621.982L810.975 621.8C810.317 621.646 809.799 621.492 809.799 620.932C809.799 620.302 810.429 620.008 811.227 620.008C811.941 620.008 812.655 620.218 813.313 620.624V619.322C812.641 618.958 811.955 618.79 811.171 618.79C809.617 618.79 808.399 619.434 808.399 620.946C808.399 622.416 809.519 622.766 810.653 623.032L811.353 623.186C811.913 623.326 812.473 623.494 812.473 624.04C812.473 624.572 811.955 624.894 811.059 624.894C810.205 624.894 809.253 624.614 808.399 623.984Z" fill="white"/>
<path d="M816.678 617.726C817.28 617.726 817.7 617.32 817.7 616.76C817.7 616.2 817.294 615.794 816.678 615.794C816.076 615.794 815.684 616.2 815.684 616.76C815.684 617.32 816.076 617.726 816.678 617.726ZM815.992 626H817.42V618.916H815.992V626Z" fill="white"/>
<path d="M821.395 626V616.046H819.981V626H821.395Z" fill="white"/>
<path d="M823.997 616.046V626H825.425V622.752L828.589 626H830.521L826.853 622.332L830.311 618.916H828.407L825.425 621.954V616.046H823.997Z" fill="white"/>
<path d="M842.531 616.046H841.103V619.686C840.543 619.056 839.787 618.79 838.933 618.79C836.945 618.79 835.503 620.316 835.503 622.444C835.503 624.572 836.945 626.126 838.919 626.126C839.801 626.126 840.557 625.818 841.131 625.132V626H842.531V616.046ZM836.931 622.444C836.931 621.072 837.715 620.078 839.129 620.078C839.969 620.078 840.641 620.428 841.103 621.058V623.844C840.669 624.446 839.983 624.838 839.115 624.838C837.701 624.838 836.931 623.816 836.931 622.444Z" fill="white"/>
<path d="M845.122 618.916V626H846.55V621.156C846.942 620.498 847.642 620.162 848.426 620.162C848.72 620.162 849.028 620.218 849.322 620.302V618.986C849.042 618.916 848.748 618.874 848.468 618.874C847.684 618.874 846.956 619.168 846.522 619.868V618.916H845.122Z" fill="white"/>
<path d="M857.031 622.892V622.276C857.031 620.12 855.911 618.79 853.965 618.79C851.781 618.79 850.493 620.442 850.493 622.486C850.493 624.67 851.935 626.126 854.217 626.126C855.155 626.126 856.037 625.888 856.821 625.37V624.04C856.051 624.6 855.197 624.894 854.287 624.894C852.859 624.894 852.019 624.152 851.879 622.892H857.031ZM851.907 621.814C852.089 620.736 852.747 620.036 853.867 620.036C854.945 620.036 855.617 620.708 855.617 621.814H851.907Z" fill="white"/>
<path d="M858.722 623.984V625.342C859.436 625.846 860.472 626.126 861.438 626.126C863.02 626.126 864.224 625.356 864.224 623.97C864.224 622.458 862.782 622.136 862.11 621.982L861.298 621.8C860.64 621.646 860.122 621.492 860.122 620.932C860.122 620.302 860.752 620.008 861.55 620.008C862.264 620.008 862.978 620.218 863.636 620.624V619.322C862.964 618.958 862.278 618.79 861.494 618.79C859.94 618.79 858.722 619.434 858.722 620.946C858.722 622.416 859.842 622.766 860.976 623.032L861.676 623.186C862.236 623.326 862.796 623.494 862.796 624.04C862.796 624.572 862.278 624.894 861.382 624.894C860.528 624.894 859.576 624.614 858.722 623.984Z" fill="white"/>
<path d="M865.923 623.984V625.342C866.637 625.846 867.673 626.126 868.639 626.126C870.221 626.126 871.425 625.356 871.425 623.97C871.425 622.458 869.983 622.136 869.311 621.982L868.499 621.8C867.841 621.646 867.323 621.492 867.323 620.932C867.323 620.302 867.953 620.008 868.751 620.008C869.465 620.008 870.179 620.218 870.837 620.624V619.322C870.165 618.958 869.479 618.79 868.695 618.79C867.141 618.79 865.923 619.434 865.923 620.946C865.923 622.416 867.043 622.766 868.177 623.032L868.877 623.186C869.437 623.326 869.997 623.494 869.997 624.04C869.997 624.572 869.479 624.894 868.583 624.894C867.729 624.894 866.777 624.614 865.923 623.984Z" fill="white"/>
<path d="M879.578 622.892V622.276C879.578 620.12 878.458 618.79 876.512 618.79C874.328 618.79 873.04 620.442 873.04 622.486C873.04 624.67 874.482 626.126 876.764 626.126C877.702 626.126 878.584 625.888 879.368 625.37V624.04C878.598 624.6 877.744 624.894 876.834 624.894C875.406 624.894 874.566 624.152 874.426 622.892H879.578ZM874.454 621.814C874.636 620.736 875.294 620.036 876.414 620.036C877.492 620.036 878.164 620.708 878.164 621.814H874.454Z" fill="white"/>
<path d="M881.269 623.984V625.342C881.983 625.846 883.019 626.126 883.985 626.126C885.567 626.126 886.771 625.356 886.771 623.97C886.771 622.458 885.329 622.136 884.657 621.982L883.845 621.8C883.187 621.646 882.669 621.492 882.669 620.932C882.669 620.302 883.299 620.008 884.097 620.008C884.811 620.008 885.525 620.218 886.183 620.624V619.322C885.511 618.958 884.825 618.79 884.041 618.79C882.487 618.79 881.269 619.434 881.269 620.946C881.269 622.416 882.389 622.766 883.523 623.032L884.223 623.186C884.783 623.326 885.343 623.494 885.343 624.04C885.343 624.572 884.825 624.894 883.929 624.894C883.075 624.894 882.123 624.614 881.269 623.984Z" fill="white"/>
<path d="M888.246 627.68H889.562L890.416 624.04H888.96L888.246 627.68Z" fill="white"/>
<path d="M897.72 626V616.046H896.306V626H897.72Z" fill="white"/>
<path d="M900.994 617.726C901.596 617.726 902.016 617.32 902.016 616.76C902.016 616.2 901.61 615.794 900.994 615.794C900.392 615.794 900 616.2 900 616.76C900 617.32 900.392 617.726 900.994 617.726ZM900.308 626H901.736V618.916H900.308V626Z" fill="white"/>
<path d="M904.297 618.916V626H905.725V621.086C906.187 620.442 906.929 620.106 907.615 620.106C908.497 620.106 909.253 620.652 909.253 621.8V626H910.681V621.45C910.681 619.77 909.435 618.79 907.923 618.79C907.069 618.79 906.299 619.098 905.697 619.756V618.916H904.297Z" fill="white"/>
<path d="M919.268 622.892V622.276C919.268 620.12 918.148 618.79 916.202 618.79C914.018 618.79 912.73 620.442 912.73 622.486C912.73 624.67 914.172 626.126 916.454 626.126C917.392 626.126 918.274 625.888 919.058 625.37V624.04C918.288 624.6 917.434 624.894 916.524 624.894C915.096 624.894 914.256 624.152 914.116 622.892H919.268ZM914.144 621.814C914.326 620.736 914.984 620.036 916.104 620.036C917.182 620.036 917.854 620.708 917.854 621.814H914.144Z" fill="white"/>
<path d="M921.365 618.916V626H922.793V621.086C923.255 620.442 923.997 620.106 924.683 620.106C925.565 620.106 926.321 620.652 926.321 621.8V626H927.749V621.45C927.749 619.77 926.503 618.79 924.991 618.79C924.137 618.79 923.367 619.098 922.765 619.756V618.916H921.365Z" fill="white"/>
<path d="M933.803 623.984V625.342C934.517 625.846 935.553 626.126 936.519 626.126C938.101 626.126 939.305 625.356 939.305 623.97C939.305 622.458 937.863 622.136 937.191 621.982L936.379 621.8C935.721 621.646 935.203 621.492 935.203 620.932C935.203 620.302 935.833 620.008 936.631 620.008C937.345 620.008 938.059 620.218 938.717 620.624V619.322C938.045 618.958 937.359 618.79 936.575 618.79C935.021 618.79 933.803 619.434 933.803 620.946C933.803 622.416 934.923 622.766 936.057 623.032L936.757 623.186C937.317 623.326 937.877 623.494 937.877 624.04C937.877 624.572 937.359 624.894 936.463 624.894C935.609 624.894 934.657 624.614 933.803 623.984Z" fill="white"/>
<path d="M947.654 618.916H946.226V623.844C945.736 624.474 945.064 624.796 944.378 624.796C943.524 624.796 942.754 624.236 942.754 623.06V618.916H941.34V623.354C941.34 625.104 942.544 626.126 944.084 626.126C944.896 626.126 945.638 625.832 946.254 625.174V626H947.654V618.916Z" fill="white"/>
<path d="M950.91 617.726C951.512 617.726 951.932 617.32 951.932 616.76C951.932 616.2 951.526 615.794 950.91 615.794C950.308 615.794 949.916 616.2 949.916 616.76C949.916 617.32 950.308 617.726 950.91 617.726ZM950.224 626H951.652V618.916H950.224V626Z" fill="white"/>
<path d="M959.239 618.916H956.411V616.704H954.983V618.916H953.303V620.176H954.983V623.452C954.983 625.188 956.173 626.126 957.629 626.126C958.203 626.126 958.819 625.972 959.407 625.664V624.376C958.931 624.684 958.399 624.852 957.923 624.852C957.097 624.852 956.411 624.376 956.411 623.326V620.176H959.239V618.916Z" fill="white"/>
<path d="M960.817 623.984V625.342C961.531 625.846 962.567 626.126 963.533 626.126C965.115 626.126 966.319 625.356 966.319 623.97C966.319 622.458 964.877 622.136 964.205 621.982L963.393 621.8C962.735 621.646 962.217 621.492 962.217 620.932C962.217 620.302 962.847 620.008 963.645 620.008C964.359 620.008 965.073 620.218 965.731 620.624V619.322C965.059 618.958 964.373 618.79 963.589 618.79C962.035 618.79 960.817 619.434 960.817 620.946C960.817 622.416 961.937 622.766 963.071 623.032L963.771 623.186C964.331 623.326 964.891 623.494 964.891 624.04C964.891 624.572 964.373 624.894 963.477 624.894C962.623 624.894 961.671 624.614 960.817 623.984Z" fill="white"/>
<path d="M967.794 627.68H969.11L969.964 624.04H968.508L967.794 627.68Z" fill="white"/>
<path d="M980.859 626V621.156C980.859 619.672 979.879 618.79 978.143 618.79C977.163 618.79 976.253 619.07 975.539 619.63V620.988C976.225 620.428 977.093 620.036 978.031 620.036C978.927 620.036 979.445 620.386 979.445 620.974C979.445 621.534 978.955 621.688 978.437 621.814L977.485 622.038C976.575 622.248 975.091 622.612 975.091 624.208C975.091 625.482 976.001 626.126 977.233 626.126C978.213 626.126 978.955 625.72 979.473 624.936V626H980.859ZM976.505 624.124C976.505 623.368 977.163 623.172 977.821 623.004L978.437 622.85C978.759 622.766 979.081 622.682 979.445 622.5V623.144C979.445 624.25 978.535 624.964 977.541 624.964C976.939 624.964 976.505 624.712 976.505 624.124Z" fill="white"/>
<path d="M983.397 618.916V626H984.825V621.086C985.287 620.442 986.029 620.106 986.715 620.106C987.597 620.106 988.353 620.652 988.353 621.8V626H989.781V621.45C989.781 619.77 988.535 618.79 987.023 618.79C986.169 618.79 985.399 619.098 984.797 619.756V618.916H983.397Z" fill="white"/>
<path d="M998.859 616.046H997.431V619.686C996.871 619.056 996.115 618.79 995.261 618.79C993.273 618.79 991.831 620.316 991.831 622.444C991.831 624.572 993.273 626.126 995.247 626.126C996.129 626.126 996.885 625.818 997.459 625.132V626H998.859V616.046ZM993.259 622.444C993.259 621.072 994.043 620.078 995.457 620.078C996.297 620.078 996.969 620.428 997.431 621.058V623.844C996.997 624.446 996.311 624.838 995.443 624.838C994.029 624.838 993.259 623.816 993.259 622.444Z" fill="white"/>
<path d="M1008.77 620.106C1009.38 620.106 1010.1 620.316 1010.77 620.764V619.434C1010.14 618.958 1009.34 618.79 1008.66 618.79C1006.68 618.79 1005.02 620.176 1005.02 622.472C1005.02 624.768 1006.65 626.126 1008.64 626.126C1009.34 626.126 1010.14 625.944 1010.77 625.496V624.138C1010.11 624.6 1009.41 624.796 1008.75 624.796C1007.45 624.796 1006.43 624.012 1006.43 622.486C1006.43 620.974 1007.44 620.106 1008.77 620.106Z" fill="white"/>
<path d="M1012.87 616.046V626H1014.3V621.086C1014.76 620.442 1015.5 620.106 1016.19 620.106C1017.07 620.106 1017.83 620.652 1017.83 621.8V626H1019.26V621.45C1019.26 619.77 1018.01 618.79 1016.5 618.79C1015.66 618.79 1014.9 619.098 1014.3 619.728V616.046H1012.87Z" fill="white"/>
<path d="M1027.07 626V621.156C1027.07 619.672 1026.09 618.79 1024.36 618.79C1023.38 618.79 1022.47 619.07 1021.75 619.63V620.988C1022.44 620.428 1023.31 620.036 1024.25 620.036C1025.14 620.036 1025.66 620.386 1025.66 620.974C1025.66 621.534 1025.17 621.688 1024.65 621.814L1023.7 622.038C1022.79 622.248 1021.31 622.612 1021.31 624.208C1021.31 625.482 1022.22 626.126 1023.45 626.126C1024.43 626.126 1025.17 625.72 1025.69 624.936V626H1027.07ZM1022.72 624.124C1022.72 623.368 1023.38 623.172 1024.04 623.004L1024.65 622.85C1024.97 622.766 1025.3 622.682 1025.66 622.5V623.144C1025.66 624.25 1024.75 624.964 1023.76 624.964C1023.15 624.964 1022.72 624.712 1022.72 624.124Z" fill="white"/>
<path d="M1029.61 618.916V626H1031.04V621.156C1031.43 620.498 1032.13 620.162 1032.92 620.162C1033.21 620.162 1033.52 620.218 1033.81 620.302V618.986C1033.53 618.916 1033.24 618.874 1032.96 618.874C1032.17 618.874 1031.45 619.168 1031.01 619.868V618.916H1029.61Z" fill="white"/>
<path d="M1035.61 618.916V626H1037.04V621.044C1037.42 620.442 1038.1 620.106 1038.72 620.106C1039.6 620.106 1040.27 620.694 1040.27 621.8V626H1041.7V621.044C1042.09 620.442 1042.78 620.106 1043.38 620.106C1044.26 620.106 1044.95 620.694 1044.95 621.8V626H1046.38V621.562C1046.38 619.882 1045.23 618.79 1043.62 618.79C1042.68 618.79 1041.81 619.196 1041.21 619.924C1040.8 619.21 1039.95 618.79 1038.98 618.79C1038.2 618.79 1037.4 619.056 1037.01 619.7V618.916H1035.61Z" fill="white"/>
<path d="M1049.57 617.726C1050.17 617.726 1050.59 617.32 1050.59 616.76C1050.59 616.2 1050.18 615.794 1049.57 615.794C1048.97 615.794 1048.57 616.2 1048.57 616.76C1048.57 617.32 1048.97 617.726 1049.57 617.726ZM1048.88 626H1050.31V618.916H1048.88V626Z" fill="white"/>
<path d="M1052.87 618.916V626H1054.3V621.086C1054.76 620.442 1055.5 620.106 1056.19 620.106C1057.07 620.106 1057.83 620.652 1057.83 621.8V626H1059.25V621.45C1059.25 619.77 1058.01 618.79 1056.5 618.79C1055.64 618.79 1054.87 619.098 1054.27 619.756V618.916H1052.87Z" fill="white"/>
<path d="M1068.53 618.916H1064.71C1062.51 618.916 1061.54 620.246 1061.54 621.618C1061.54 622.556 1062 623.326 1062.79 623.76C1062.13 623.914 1061.86 624.334 1061.86 624.768C1061.86 625.286 1062.26 625.678 1062.87 625.818C1061.74 626.028 1061.16 626.63 1061.16 627.484C1061.16 628.856 1062.63 629.374 1064.43 629.374C1066.32 629.374 1068 628.772 1068 627.218C1068 625.608 1066.25 625.356 1065.2 625.314L1064.2 625.272C1063.85 625.258 1063.15 625.216 1063.15 624.726C1063.15 624.292 1063.73 624.222 1064.34 624.138C1066.23 623.9 1067.37 623.088 1067.37 621.618C1067.37 620.974 1067.14 620.554 1066.62 620.176H1068.53V618.916ZM1062.49 627.372C1062.49 626.588 1063.45 626.448 1064.51 626.448C1066.04 626.448 1066.64 626.714 1066.64 627.316C1066.64 628.086 1065.64 628.282 1064.44 628.282C1063.35 628.282 1062.49 628.128 1062.49 627.372ZM1062.89 621.618C1062.89 620.764 1063.5 620.148 1064.45 620.148C1065.41 620.148 1066.04 620.764 1066.04 621.618C1066.04 622.472 1065.41 623.06 1064.45 623.06C1063.5 623.06 1062.89 622.458 1062.89 621.618Z" fill="white"/>
<path d="M1078.95 618.916H1076.13V616.704H1074.7V618.916H1073.02V620.176H1074.7V623.452C1074.7 625.188 1075.89 626.126 1077.34 626.126C1077.92 626.126 1078.53 625.972 1079.12 625.664V624.376C1078.65 624.684 1078.11 624.852 1077.64 624.852C1076.81 624.852 1076.13 624.376 1076.13 623.326V620.176H1078.95V618.916Z" fill="white"/>
<path d="M1089.51 618.916L1087.73 624.068L1086.13 618.916H1084.94L1083.35 624.068L1081.57 618.916H1080.03L1082.69 626H1083.93L1085.54 621.282L1087.15 626H1088.4L1091.06 618.916H1089.51Z" fill="white"/>
<path d="M1095.69 618.79C1093.59 618.79 1092.13 620.302 1092.13 622.444C1092.13 624.586 1093.59 626.126 1095.69 626.126C1097.8 626.126 1099.26 624.614 1099.26 622.472C1099.26 620.33 1097.8 618.79 1095.69 618.79ZM1093.56 622.444C1093.56 621.03 1094.37 620.106 1095.69 620.106C1097.02 620.106 1097.83 621.044 1097.83 622.458C1097.83 623.886 1097.02 624.796 1095.69 624.796C1094.37 624.796 1093.56 623.872 1093.56 622.444Z" fill="white"/>
<path d="M1100.88 622.318H1105.04V621.044H1100.88V622.318Z" fill="white"/>
<path d="M1110.79 618.79C1109.91 618.79 1109.09 619.084 1108.55 619.77V618.916H1107.15V628.688H1108.58V625.118C1109.12 625.734 1109.88 626 1110.72 626C1113.03 626 1114.18 624.152 1114.18 622.332C1114.18 620.554 1113.04 618.79 1110.79 618.79ZM1108.58 623.718V621.058C1109.01 620.456 1109.68 620.078 1110.58 620.078C1112.06 620.078 1112.75 621.212 1112.75 622.36C1112.75 623.536 1112.08 624.712 1110.58 624.712C1109.72 624.712 1109.04 624.348 1108.58 623.718Z" fill="white"/>
<path d="M1116.96 617.726C1117.57 617.726 1117.99 617.32 1117.99 616.76C1117.99 616.2 1117.58 615.794 1116.96 615.794C1116.36 615.794 1115.97 616.2 1115.97 616.76C1115.97 617.32 1116.36 617.726 1116.96 617.726ZM1116.28 626H1117.71V618.916H1116.28V626Z" fill="white"/>
<path d="M1126.31 622.892V622.276C1126.31 620.12 1125.19 618.79 1123.25 618.79C1121.06 618.79 1119.78 620.442 1119.78 622.486C1119.78 624.67 1121.22 626.126 1123.5 626.126C1124.44 626.126 1125.32 625.888 1126.1 625.37V624.04C1125.33 624.6 1124.48 624.894 1123.57 624.894C1122.14 624.894 1121.3 624.152 1121.16 622.892H1126.31ZM1121.19 621.814C1121.37 620.736 1122.03 620.036 1123.15 620.036C1124.23 620.036 1124.9 620.708 1124.9 621.814H1121.19Z" fill="white"/>
<path d="M1131.67 620.106C1132.29 620.106 1133 620.316 1133.67 620.764V619.434C1133.04 618.958 1132.25 618.79 1131.56 618.79C1129.59 618.79 1127.92 620.176 1127.92 622.472C1127.92 624.768 1129.56 626.126 1131.55 626.126C1132.25 626.126 1133.04 625.944 1133.67 625.496V624.138C1133.02 624.6 1132.32 624.796 1131.66 624.796C1130.36 624.796 1129.33 624.012 1129.33 622.486C1129.33 620.974 1130.34 620.106 1131.67 620.106Z" fill="white"/>
<path d="M1141.82 622.892V622.276C1141.82 620.12 1140.7 618.79 1138.76 618.79C1136.57 618.79 1135.29 620.442 1135.29 622.486C1135.29 624.67 1136.73 626.126 1139.01 626.126C1139.95 626.126 1140.83 625.888 1141.61 625.37V624.04C1140.84 624.6 1139.99 624.894 1139.08 624.894C1137.65 624.894 1136.81 624.152 1136.67 622.892H1141.82ZM1136.7 621.814C1136.88 620.736 1137.54 620.036 1138.66 620.036C1139.74 620.036 1140.41 620.708 1140.41 621.814H1136.7Z" fill="white"/>
<path d="M1147.16 623.984V625.342C1147.87 625.846 1148.91 626.126 1149.88 626.126C1151.46 626.126 1152.66 625.356 1152.66 623.97C1152.66 622.458 1151.22 622.136 1150.55 621.982L1149.74 621.8C1149.08 621.646 1148.56 621.492 1148.56 620.932C1148.56 620.302 1149.19 620.008 1149.99 620.008C1150.7 620.008 1151.42 620.218 1152.07 620.624V619.322C1151.4 618.958 1150.72 618.79 1149.93 618.79C1148.38 618.79 1147.16 619.434 1147.16 620.946C1147.16 622.416 1148.28 622.766 1149.41 623.032L1150.11 623.186C1150.67 623.326 1151.23 623.494 1151.23 624.04C1151.23 624.572 1150.72 624.894 1149.82 624.894C1148.97 624.894 1148.01 624.614 1147.16 623.984Z" fill="white"/>
<path d="M1160.82 622.892V622.276C1160.82 620.12 1159.7 618.79 1157.75 618.79C1155.57 618.79 1154.28 620.442 1154.28 622.486C1154.28 624.67 1155.72 626.126 1158 626.126C1158.94 626.126 1159.82 625.888 1160.61 625.37V624.04C1159.84 624.6 1158.98 624.894 1158.07 624.894C1156.64 624.894 1155.8 624.152 1155.66 622.892H1160.82ZM1155.69 621.814C1155.87 620.736 1156.53 620.036 1157.65 620.036C1158.73 620.036 1159.4 620.708 1159.4 621.814H1155.69Z" fill="white"/>
<path d="M1167.94 618.916H1165.11V616.704H1163.68V618.916H1162V620.176H1163.68V623.452C1163.68 625.188 1164.87 626.126 1166.33 626.126C1166.9 626.126 1167.52 625.972 1168.11 625.664V624.376C1167.63 624.684 1167.1 624.852 1166.62 624.852C1165.8 624.852 1165.11 624.376 1165.11 623.326V620.176H1167.94V618.916Z" fill="white"/>
<path d="M1169.52 623.984V625.342C1170.23 625.846 1171.27 626.126 1172.23 626.126C1173.81 626.126 1175.02 625.356 1175.02 623.97C1175.02 622.458 1173.58 622.136 1172.9 621.982L1172.09 621.8C1171.43 621.646 1170.92 621.492 1170.92 620.932C1170.92 620.302 1171.55 620.008 1172.34 620.008C1173.06 620.008 1173.77 620.218 1174.43 620.624V619.322C1173.76 618.958 1173.07 618.79 1172.29 618.79C1170.73 618.79 1169.52 619.434 1169.52 620.946C1169.52 622.416 1170.64 622.766 1171.77 623.032L1172.47 623.186C1173.03 623.326 1173.59 623.494 1173.59 624.04C1173.59 624.572 1173.07 624.894 1172.18 624.894C1171.32 624.894 1170.37 624.614 1169.52 623.984Z" fill="white"/>
<path d="M1177.63 624.166C1177.01 624.166 1176.63 624.558 1176.63 625.132C1176.63 625.692 1177.01 626.098 1177.63 626.098C1178.24 626.098 1178.62 625.692 1178.62 625.132C1178.62 624.558 1178.24 624.166 1177.63 624.166Z" fill="white"/>
</svg>
